<?xml version="1.0" encoding="utf-8"?>
<!-- Generator: Adobe Illustrator 16.0.3, SVG Export Plug-In . SVG Version: 6.00 Build 0)  -->
<!DOCTYPE svg PUBLIC "-//W3C//DTD SVG 1.1//EN" "http://www.w3.org/Graphics/SVG/1.1/DTD/svg11.dtd">
<svg version="1.1" id="Layer_1" xmlns="http://www.w3.org/2000/svg" xmlns:xlink="http://www.w3.org/1999/xlink" x="0px" y="0px"
	 width="30px" height="30px" viewBox="0 0 30 30" enable-background="new 0 0 30 30" xml:space="preserve">
<path fill="#CED1D9" d="M17.181,20.485H2.421l12.867-8.158l3.352,3.626l0.637,0.018c0.034-0.048,0.069-0.097,0.105-0.144
	l-0.293-0.826c-0.12-0.34-0.023-0.713,0.248-0.951c0.308-0.27,0.642-0.512,0.99-0.72c0.137-0.081,0.291-0.123,0.448-0.123
	c0.191,0,0.381,0.064,0.532,0.18l0.694,0.534c0.058-0.02,0.115-0.039,0.173-0.057l0.248-0.84c0.102-0.346,0.399-0.591,0.759-0.624
	c0.146-0.014,0.298-0.017,0.448-0.021V6.147H1.62V21.29h15.78c-0.071-0.215-0.155-0.416-0.207-0.647
	C17.181,20.59,17.183,20.538,17.181,20.485z M10.705,8.189c0.956,0,1.731,0.775,1.731,1.731c0,0.956-0.775,1.73-1.731,1.73
	c-0.956,0-1.731-0.774-1.731-1.73C8.974,8.964,9.75,8.189,10.705,8.189z M2.368,9.563l7.593,5.435l-7.593,4.729V9.563z
	 M23.63,17.247v3.792c-0.466-0.04-0.886-0.239-1.196-0.554h0.395l-0.911-0.986c-0.021-0.115-0.036-0.233-0.036-0.355
	C21.881,18.145,22.653,17.332,23.63,17.247z M24.298,20.979v-3.673c0.335,0.092,0.634,0.268,0.869,0.511v2.652
	C24.932,20.712,24.633,20.888,24.298,20.979z M19.383,22.458l-0.163,0.458H0.083V4.582h25.084v8.451l-0.003-0.008
	c-0.102-0.346-0.399-0.591-0.759-0.625c-0.035-0.003-0.071-0.002-0.107-0.005V5.451H0.952v16.596h16.776
	c0.163,0.176,0.397,0.286,0.666,0.291l0.883-0.024C19.311,22.362,19.346,22.41,19.383,22.458z M23.794,25.418
	c-0.191,0-0.378-0.012-0.563-0.027c-0.154-0.014-0.284-0.119-0.328-0.268l-0.326-1.106c-0.224-0.058-0.444-0.13-0.659-0.217
	l-0.913,0.702c-0.122,0.094-0.29,0.104-0.422,0.024c-0.326-0.195-0.634-0.419-0.916-0.666c-0.115-0.102-0.157-0.263-0.106-0.408
	l0.387-1.088c-0.149-0.179-0.286-0.365-0.408-0.559l-1.158,0.032c-0.149-0.003-0.294-0.086-0.354-0.227
	c-0.143-0.331-0.259-0.694-0.346-1.078c-0.033-0.149,0.027-0.305,0.154-0.392l0.95-0.65c-0.009-0.115-0.014-0.231-0.014-0.349
	s0.005-0.232,0.014-0.348l-0.95-0.65c-0.127-0.087-0.188-0.242-0.154-0.393c0.087-0.382,0.203-0.745,0.346-1.078
	c0.061-0.143,0.19-0.232,0.354-0.228l1.158,0.032c0.122-0.193,0.259-0.38,0.408-0.557l-0.387-1.088
	c-0.051-0.145-0.009-0.306,0.106-0.408c0.285-0.25,0.594-0.474,0.917-0.666c0.133-0.078,0.299-0.068,0.421,0.025l0.913,0.702
	c0.219-0.088,0.439-0.161,0.659-0.216l0.326-1.105c0.043-0.147,0.172-0.253,0.325-0.268c0.371-0.035,0.758-0.035,1.132,0
	c0.153,0.014,0.282,0.12,0.325,0.268l0.326,1.104c0.22,0.056,0.44,0.128,0.659,0.217l0.914-0.702
	c0.121-0.094,0.288-0.104,0.421-0.024c0.325,0.194,0.633,0.418,0.916,0.666c0.116,0.101,0.158,0.263,0.106,0.408l-0.387,1.088
	c0.149,0.177,0.286,0.363,0.408,0.557l1.158-0.032c0.137-0.004,0.294,0.085,0.354,0.228c0.144,0.334,0.26,0.696,0.347,1.078
	c0.034,0.149-0.027,0.306-0.154,0.393l-0.95,0.65c0.009,0.115,0.013,0.23,0.013,0.348s-0.004,0.233-0.013,0.349l0.95,0.65
	c0.127,0.087,0.188,0.242,0.154,0.393c-0.087,0.383-0.203,0.745-0.347,1.077c-0.062,0.141-0.214,0.228-0.354,0.227l-1.158-0.032
	c-0.121,0.193-0.258,0.38-0.408,0.559l0.387,1.088c0.052,0.146,0.01,0.307-0.106,0.408c-0.283,0.248-0.592,0.472-0.916,0.666
	c-0.132,0.08-0.299,0.07-0.421-0.024L25.67,23.8c-0.215,0.087-0.436,0.159-0.659,0.217l-0.326,1.106
	c-0.044,0.148-0.174,0.254-0.328,0.268C24.171,25.406,23.983,25.418,23.794,25.418z M23.548,24.661c0.162,0.008,0.328,0.008,0.491,0
	l0.314-1.067c0.039-0.133,0.148-0.232,0.284-0.261c0.317-0.065,0.631-0.169,0.93-0.306c0.125-0.061,0.273-0.043,0.385,0.044
	l0.882,0.677c0.137-0.091,0.271-0.188,0.399-0.29l-0.374-1.05c-0.046-0.132-0.017-0.277,0.078-0.38
	c0.225-0.245,0.419-0.51,0.576-0.788c0.068-0.121,0.191-0.206,0.337-0.19l1.115,0.031c0.056-0.15,0.105-0.306,0.149-0.468
	l-0.919-0.629c-0.115-0.079-0.177-0.216-0.16-0.355c0.02-0.159,0.03-0.321,0.03-0.486s-0.011-0.326-0.03-0.485
	c-0.017-0.139,0.045-0.276,0.16-0.355l0.919-0.629c-0.044-0.162-0.094-0.318-0.149-0.47l-1.115,0.031
	c-0.143-0.006-0.268-0.069-0.337-0.189c-0.158-0.279-0.352-0.544-0.576-0.787c-0.095-0.102-0.124-0.248-0.078-0.38l0.374-1.049
	c-0.129-0.103-0.262-0.199-0.399-0.29l-0.882,0.677c-0.11,0.084-0.258,0.101-0.383,0.044c-0.309-0.14-0.622-0.242-0.931-0.305
	c-0.136-0.028-0.246-0.128-0.285-0.262l-0.314-1.067c-0.164-0.009-0.328-0.008-0.491,0l-0.314,1.067
	c-0.039,0.133-0.149,0.234-0.285,0.262c-0.309,0.063-0.622,0.165-0.931,0.305c-0.128,0.055-0.274,0.04-0.384-0.044l-0.881-0.677
	c-0.137,0.09-0.271,0.188-0.398,0.29l0.373,1.05c0.046,0.132,0.017,0.277-0.078,0.38c-0.224,0.243-0.418,0.508-0.577,0.787
	c-0.067,0.12-0.204,0.18-0.336,0.189l-1.115-0.031c-0.056,0.15-0.105,0.308-0.148,0.47l0.918,0.629
	c0.115,0.079,0.178,0.216,0.16,0.354c-0.019,0.159-0.03,0.321-0.03,0.486s0.012,0.327,0.031,0.487
	c0.017,0.139-0.046,0.275-0.161,0.354l-0.919,0.629c0.044,0.162,0.094,0.318,0.149,0.468l1.115-0.031
	c0.135-0.012,0.269,0.069,0.337,0.189c0.158,0.279,0.352,0.544,0.577,0.789c0.094,0.103,0.123,0.249,0.077,0.38l-0.373,1.05
	c0.128,0.102,0.262,0.199,0.399,0.29l0.88-0.677c0.11-0.085,0.259-0.103,0.385-0.044c0.3,0.137,0.613,0.24,0.932,0.306
	c0.135,0.028,0.244,0.128,0.283,0.261L23.548,24.661z M23.794,22.306c-1.744,0-3.163-1.419-3.163-3.162
	c0-1.744,1.419-3.163,3.163-3.163c1.743,0,3.162,1.419,3.162,3.163C26.956,20.887,25.537,22.306,23.794,22.306z M23.794,16.73
	c-1.33,0-2.413,1.082-2.413,2.413c0,1.33,1.083,2.412,2.413,2.412s2.412-1.082,2.412-2.412C26.206,17.813,25.124,16.73,23.794,16.73
	z"/>
</svg>
