<?xml version="1.0" encoding="utf-8"?>
<!-- Generator: Adobe Illustrator 16.0.0, SVG Export Plug-In . SVG Version: 6.00 Build 0)  -->
<!DOCTYPE svg PUBLIC "-//W3C//DTD SVG 1.1//EN" "http://www.w3.org/Graphics/SVG/1.1/DTD/svg11.dtd">
<svg version="1.1" id="Layer_1" xmlns="http://www.w3.org/2000/svg" xmlns:xlink="http://www.w3.org/1999/xlink" x="0px" y="0px"
	 width="75px" height="75px" viewBox="0 0 75 75" enable-background="new 0 0 75 75" xml:space="preserve">
<g>
	
		<path fill="none" stroke="#21A0DF" stroke-width="1.75" stroke-linecap="round" stroke-linejoin="round" stroke-miterlimit="10" d="
		M52.641,66.489"/>
</g>
<g>
	
		<path fill="none" stroke="#21A0DF" stroke-width="1.75" stroke-linecap="round" stroke-linejoin="round" stroke-miterlimit="10" d="
		M57.921,65.491"/>
</g>
<g>
	<g>
		
			<path fill="none" stroke="#21A0DF" stroke-width="1.75" stroke-linecap="round" stroke-linejoin="round" stroke-miterlimit="10" d="
			M53.936,70.87c0,1.066-0.863,1.934-1.934,1.934H22.996c-1.067,0-1.934-0.867-1.934-1.934l-4.836-41.04
			c0-1.068,0.865-1.934,1.934-1.934h38.68c1.066,0,1.934,0.865,1.934,1.934L53.936,70.87z"/>
		<g>
			
				<line fill="none" stroke="#21A0DF" stroke-width="1.75" stroke-linecap="round" stroke-linejoin="round" stroke-miterlimit="10" x1="28.981" y1="64.313" x2="29.308" y2="67.222"/>
			
				<line fill="none" stroke="#21A0DF" stroke-width="1.75" stroke-linecap="round" stroke-linejoin="round" stroke-miterlimit="10" x1="25.676" y1="34.846" x2="26.435" y2="41.617"/>
			
				<line fill="none" stroke="#21A0DF" stroke-width="1.75" stroke-linecap="round" stroke-linejoin="round" stroke-miterlimit="10" x1="46.018" y1="64.315" x2="45.691" y2="67.222"/>
			
				<line fill="none" stroke="#21A0DF" stroke-width="1.75" stroke-linecap="round" stroke-linejoin="round" stroke-miterlimit="10" x1="49.322" y1="34.846" x2="48.59" y2="41.371"/>
			
				<line fill="none" stroke="#21A0DF" stroke-width="1.75" stroke-linecap="round" stroke-linejoin="round" stroke-miterlimit="10" x1="37.306" y1="65.769" x2="37.306" y2="67.222"/>
			
				<line fill="none" stroke="#21A0DF" stroke-width="1.75" stroke-linecap="round" stroke-linejoin="round" stroke-miterlimit="10" x1="37.306" y1="34.846" x2="37.306" y2="36.875"/>
		</g>
	</g>
</g>
<g>
	
		<circle fill="none" stroke="#21A0DF" stroke-width="1.75" stroke-linecap="round" stroke-linejoin="round" stroke-miterlimit="10" cx="37.5" cy="51.575" r="10.203"/>
	<g>
		
			<line fill="none" stroke="#21A0DF" stroke-width="1.75" stroke-linecap="round" stroke-linejoin="round" stroke-miterlimit="10" x1="32.717" y1="46.79" x2="42.285" y2="56.358"/>
		
			<line fill="none" stroke="#21A0DF" stroke-width="1.75" stroke-linecap="round" stroke-linejoin="round" stroke-miterlimit="10" x1="32.717" y1="56.358" x2="42.285" y2="46.79"/>
	</g>
</g>
<g>
	<g>
		<path fill="#21A0DF" stroke="#21A0DF" stroke-linecap="round" stroke-linejoin="round" stroke-miterlimit="10" d="M30.396,27.369
			l-3.276-7.024l2.402-1.121c2.317-1.08,3.895-0.719,4.733,1.081c0.438,0.939,0.455,1.809,0.05,2.612
			c-0.405,0.803-1.203,1.481-2.396,2.039l-1.089,0.508l0.857,1.838 M30.39,24.54l0.97-0.453c0.955-0.445,1.573-0.922,1.857-1.429
			c0.282-0.508,0.265-1.101-0.052-1.781c-0.286-0.613-0.699-0.976-1.24-1.089c-0.543-0.112-1.237,0.029-2.086,0.425l-1.204,0.562
			L30.39,24.54z"/>
		<path fill="#21A0DF" stroke="#21A0DF" stroke-linecap="round" stroke-linejoin="round" stroke-miterlimit="10" d="M46.293,22.687
			l-1.076,0.502l-2.033-4.36l-4.883,2.276l2.034,4.361l-1.078,0.501L34.936,16.7l1.078-0.502l1.839,3.943l4.88-2.276l-1.838-3.943
			l1.076-0.501L46.293,22.687z"/>
		<path fill="#21A0DF" stroke="#21A0DF" stroke-linecap="round" stroke-linejoin="round" stroke-miterlimit="10" d="M51.648,12.196
			c0.436,0.938,0.454,1.808,0.049,2.611c-0.406,0.804-1.203,1.483-2.395,2.039l-1.09,0.509L49.911,21l-1.076,0.502l-4.322-9.266
			l2.401-1.121C49.23,10.036,50.809,10.396,51.648,12.196z M47.781,16.43l0.969-0.453c0.954-0.445,1.574-0.921,1.857-1.429
			c0.281-0.506,0.266-1.101-0.053-1.781c-0.285-0.612-0.698-0.976-1.239-1.088c-0.542-0.112-1.237,0.029-2.087,0.425l-1.203,0.56
			L47.781,16.43z"/>
	</g>
	
		<path fill="none" stroke="#21A0DF" stroke-width="1.75" stroke-linecap="round" stroke-linejoin="round" stroke-miterlimit="10" d="
		M20.102,27.406c-0.618-4.872,5.762-11.804,15.299-16.251c10.491-4.893,20.834-4.923,23.098-0.07
		c2.069,4.442-3.342,11.436-12.312,16.34"/>
</g>
</svg>
