<?xml version="1.0" encoding="utf-8"?>
<!-- Generator: Adobe Illustrator 16.0.3, SVG Export Plug-In . SVG Version: 6.00 Build 0)  -->
<!DOCTYPE svg PUBLIC "-//W3C//DTD SVG 1.1//EN" "http://www.w3.org/Graphics/SVG/1.1/DTD/svg11.dtd">
<svg version="1.1" id="Layer_1" xmlns="http://www.w3.org/2000/svg" xmlns:xlink="http://www.w3.org/1999/xlink" x="0px" y="0px"
	 width="75px" height="75px" viewBox="0 0 75 75" enable-background="new 0 0 75 75" xml:space="preserve">
<g>
	<path fill="#6699CC" d="M62.324,17.893l2.085-2.085c0.366-0.367,0.569-0.855,0.569-1.374s-0.203-1.007-0.568-1.374L53.094,1.743
		c-0.365-0.367-0.854-0.57-1.373-0.57c-0.519,0-1.007,0.202-1.373,0.569l-7.883,7.882c-0.064-0.08-0.141-0.154-0.234-0.21
		l-7.519-4.431c-0.447-0.264-0.969-0.338-1.472-0.208c-0.503,0.13-0.924,0.448-1.188,0.896l-3.12,5.293l-1.2-2.208
		c-0.249-0.457-0.66-0.789-1.159-0.936c-0.497-0.146-1.023-0.09-1.476,0.157L11.034,15.62c-0.938,0.511-1.287,1.692-0.778,2.634
		l4.606,8.477c-1.289,0.254-2.264,1.391-2.264,2.753c0,0.034,0.002,0.068,0.006,0.103l4.831,40.993
		c0.03,1.523,1.278,2.753,2.808,2.753H49.25c1.529,0,2.777-1.229,2.809-2.753l4.832-40.993c0.004-0.034,0.006-0.068,0.006-0.103
		c0-1.549-1.26-2.809-2.81-2.809h-0.544l2.629-2.629l8.118-2.356c0.297-0.086,0.526-0.323,0.604-0.623
		c0.076-0.3-0.011-0.618-0.229-0.836L62.324,17.893z M33.561,6.558c0.034-0.057,0.083-0.08,0.118-0.089
		c0.033-0.01,0.087-0.013,0.145,0.021l7.408,4.367l-9.371,9.371c-0.757,0.757-0.756,1.99,0,2.747l3.7,3.701h-3.046l0.714-1.211
		c0.245-0.417,0.106-0.953-0.31-1.198c-0.417-0.245-0.953-0.106-1.198,0.31l-1.163,1.973c-0.024,0.041-0.027,0.085-0.044,0.127
		h-3.032L35.366,13.3c0.245-0.417,0.107-0.953-0.31-1.198s-0.953-0.107-1.198,0.31l-8.307,14.094
		c-0.032,0.054-0.04,0.113-0.059,0.17h-3.789L33.561,6.558z M11.871,17.157l14.066-7.644c0.056-0.031,0.109-0.026,0.144-0.015
		c0.035,0.011,0.083,0.035,0.115,0.093l1.266,2.328c0.138,0.254,0.386,0.397,0.653,0.434l-2.13,3.613l-0.291-0.535
		c-0.23-0.424-0.763-0.582-1.187-0.351c-0.424,0.231-0.582,0.762-0.351,1.187l0.388,0.713c0.127,0.234,0.346,0.381,0.588,0.433
		l-1.715,2.908L21.884,17.5c-0.23-0.424-0.762-0.582-1.187-0.351c-0.424,0.23-0.582,0.762-0.351,1.187l1.535,2.824
		c0.158,0.292,0.459,0.457,0.77,0.457c0.001,0,0.002,0,0.003,0l-1.833,3.109c-0.017-0.077-0.03-0.155-0.07-0.228l-2.677-4.926
		c-0.231-0.424-0.763-0.582-1.187-0.351c-0.424,0.231-0.582,0.762-0.351,1.187l2.677,4.926c0.159,0.292,0.459,0.457,0.77,0.457
		c0.084,0,0.165-0.038,0.248-0.063l-0.269,0.457c-0.091,0.155-0.113,0.325-0.104,0.492h-3.034l-5.03-9.255
		C11.743,17.326,11.778,17.208,11.871,17.157z M55.145,29.44l-4.83,40.981c-0.004,0.034-0.006,0.068-0.006,0.103
		c0,0.584-0.475,1.06-1.059,1.06H20.243c-0.583,0-1.059-0.476-1.059-1.06c0-0.033-0.002-0.067-0.006-0.103l-4.83-40.981
		c0.023-0.563,0.489-1.015,1.058-1.015h38.681C54.656,28.425,55.121,28.876,55.145,29.44z M55.468,22.428
		c-0.142,0.041-0.271,0.117-0.375,0.222l-4.024,4.025h-3.877l10.588-10.586c0.341-0.342,0.341-0.896,0-1.237
		c-0.342-0.342-0.896-0.342-1.238,0l-11.57,11.569c-0.076,0.075-0.128,0.163-0.17,0.254h-6.765l-4.937-4.938
		c-0.075-0.075-0.075-0.197,0-0.272L51.585,2.979c0.047-0.046,0.101-0.056,0.136-0.056c0.036,0,0.088,0.01,0.135,0.057
		l11.317,11.318c0.048,0.046,0.058,0.1,0.058,0.136c0,0.036-0.01,0.089-0.059,0.136l-2.704,2.705
		c-0.163,0.164-0.256,0.387-0.256,0.619s0.093,0.455,0.257,0.619l1.911,1.911L55.468,22.428z"/>
	<path fill="#6699CC" d="M51.648,8.721c-0.342-0.342-0.896-0.342-1.238,0L38.84,20.289c-0.341,0.341-0.341,0.896,0,1.237
		c0.172,0.171,0.396,0.256,0.619,0.256s0.448-0.085,0.619-0.256l11.57-11.568C51.988,9.617,51.99,9.063,51.648,8.721z"/>
	<path fill="#6699CC" d="M53.475,11.787L41.906,23.356c-0.342,0.342-0.342,0.896,0,1.237c0.171,0.171,0.396,0.256,0.619,0.256
		c0.223,0,0.447-0.085,0.619-0.256l11.566-11.569c0.342-0.342,0.341-0.896,0-1.237C54.37,11.445,53.814,11.445,53.475,11.787z"/>
	<path fill="#6699CC" d="M26.256,54.037l1.131,0.652l0.001-4.361l-3.779,2.18l1.131,0.653l-0.326,0.565
		c-0.896,1.549-1.013,3.057-0.329,4.242s2.047,1.84,3.838,1.84h4.415c0.483,0,0.875-0.393,0.875-0.875
		c0-0.483-0.392-0.875-0.875-0.875h-4.415c-1.123,0-1.969-0.353-2.323-0.965c-0.354-0.611-0.234-1.521,0.328-2.492L26.256,54.037z"
		/>
	<path fill="#6699CC" d="M29.08,47.398c0.138,0.08,0.289,0.117,0.437,0.117c0.302,0,0.596-0.156,0.758-0.438l2.221-3.844
		c0.371-0.641,0.817-1.09,1.325-1.336c0.454-0.221,0.896-0.222,1.35,0.002c0.506,0.244,0.95,0.692,1.322,1.336l0.366,0.632
		l-1.131,0.653l3.779,2.18l-0.003-4.362l-1.13,0.653l-0.366-0.633c-0.55-0.95-1.248-1.635-2.073-2.034
		c-0.926-0.449-1.946-0.45-2.875-0.003c-0.83,0.402-1.529,1.088-2.078,2.037l-2.221,3.844C28.519,46.622,28.662,47.157,29.08,47.398
		z"/>
	<path fill="#6699CC" d="M36.654,58.934l3.778,2.183v-1.308h0.637c1.791,0,3.154-0.652,3.84-1.84
		c0.684-1.187,0.566-2.693-0.33-4.242l-2.25-3.895c-0.241-0.419-0.776-0.561-1.195-0.32c-0.419,0.242-0.563,0.777-0.32,1.195
		l2.252,3.896c0.562,0.971,0.682,1.879,0.328,2.492c-0.354,0.611-1.199,0.963-2.322,0.963h-0.637v-1.307L36.654,58.934z"/>
	<path fill="#6699CC" d="M26.13,63.1c-0.48,0.053-0.826,0.485-0.772,0.967l0.327,2.906c0.05,0.447,0.429,0.777,0.869,0.777
		c0.033,0,0.065-0.002,0.099-0.006c0.48-0.055,0.826-0.486,0.772-0.967l-0.327-2.907C27.043,63.391,26.613,63.048,26.13,63.1z"/>
	<path fill="#6699CC" d="M24.216,46.914c0.032,0,0.065-0.002,0.099-0.006c0.48-0.055,0.826-0.486,0.772-0.967l-1.294-11.54
		c-0.054-0.479-0.481-0.822-0.967-0.772c-0.48,0.054-0.826,0.487-0.772,0.967l1.294,11.539
		C23.397,46.584,23.776,46.914,24.216,46.914z"/>
	<path fill="#6699CC" d="M43.361,63.1c-0.489-0.06-0.912,0.291-0.967,0.771l-0.326,2.906c-0.055,0.479,0.291,0.912,0.771,0.967
		c0.033,0.004,0.066,0.006,0.1,0.006c0.438,0,0.817-0.33,0.867-0.777l0.326-2.906C44.188,63.586,43.843,63.152,43.361,63.1z"/>
	<path fill="#6699CC" d="M45.176,46.932c0.033,0.004,0.066,0.006,0.1,0.006c0.438,0,0.817-0.33,0.867-0.776l1.297-11.563
		c0.056-0.48-0.291-0.914-0.771-0.967c-0.487-0.049-0.913,0.292-0.967,0.772l-1.298,11.563
		C44.35,46.445,44.695,46.878,45.176,46.932z"/>
	<path fill="#6699CC" d="M34.552,63.125c-0.483,0-0.875,0.393-0.875,0.875v2.875c0,0.482,0.392,0.875,0.875,0.875
		c0.483,0,0.875-0.393,0.875-0.875V64C35.427,63.518,35.036,63.125,34.552,63.125z"/>
	<path fill="#6699CC" d="M34.552,37.187c0.483,0,0.875-0.392,0.875-0.875V34.5c0-0.483-0.392-0.875-0.875-0.875
		c-0.483,0-0.875,0.392-0.875,0.875v1.812C33.677,36.795,34.069,37.187,34.552,37.187z"/>
</g>
</svg>
