<?xml version="1.0" encoding="utf-8"?>
<!-- Generator: Adobe Illustrator 16.0.3, SVG Export Plug-In . SVG Version: 6.00 Build 0)  -->
<!DOCTYPE svg PUBLIC "-//W3C//DTD SVG 1.1//EN" "http://www.w3.org/Graphics/SVG/1.1/DTD/svg11.dtd">
<svg version="1.1" id="Layer_1" xmlns="http://www.w3.org/2000/svg" xmlns:xlink="http://www.w3.org/1999/xlink" x="0px" y="0px"
	 width="75px" height="75px" viewBox="0 0 75 75" enable-background="new 0 0 75 75" xml:space="preserve">
<path fill="#21A0DF" d="M66.478,27.294c0,0,0-0.001,0-0.001V11.727c0-0.054-0.006-0.107-0.017-0.159
	c0-0.001-0.001-0.002-0.001-0.004c0.006-0.089,0.018-0.178,0.018-0.268c0-0.163-0.049-0.313-0.132-0.439
	c-0.628-2.732-3.608-5.213-8.528-7.054c-5.19-1.943-12.039-3.013-19.281-3.013c-7.244,0-14.091,1.07-19.283,3.013
	c-4.92,1.841-7.9,4.322-8.527,7.055c-0.083,0.126-0.132,0.276-0.132,0.438c0,0.089,0.012,0.178,0.017,0.267c0,0.001,0,0.003,0,0.004
	c-0.011,0.052-0.017,0.105-0.017,0.161v50.829c0,0.057,0.006,0.111,0.017,0.164c0.505,6.453,12.718,11.491,27.925,11.491
	c15.204,0,27.415-5.037,27.923-11.489c0.013-0.053,0.019-0.109,0.019-0.166v-17.66c0-0.002,0-0.002,0-0.003v-0.001V27.296
	C66.478,27.296,66.478,27.295,66.478,27.294z M19.813,5.299c5.017-1.878,11.665-2.911,18.723-2.911
	c7.057,0,13.706,1.033,18.722,2.911c4.615,1.727,7.365,4.025,7.598,6.326c-0.5,4.419-10.945,9.024-26.319,9.024
	c-15.375,0-25.821-4.604-26.319-9.024C12.449,9.324,15.199,7.026,19.813,5.299z M38.536,22.248c12.32,0,22.537-2.975,26.343-7.232
	v12.281c-0.004,5.589-12.066,10.311-26.343,10.311c-14.279,0-26.343-4.723-26.343-10.313V15.015
	C15.999,19.272,26.216,22.248,38.536,22.248z M64.879,62.442c-0.004,0.023-0.006,0.047-0.008,0.068
	c-0.142,2.551-2.929,5.097-7.648,6.987c-5.01,2.008-11.646,3.114-18.687,3.114c-7.041,0-13.678-1.106-18.687-3.114
	c-4.72-1.891-7.507-4.437-7.65-6.987c-0.001-0.021-0.003-0.045-0.006-0.067V48.938c3.806,4.631,14.023,7.867,26.343,7.867
	c12.32,0,22.537-3.236,26.343-7.866V62.442z M64.879,44.895c-0.004,5.59-12.066,10.313-26.343,10.313
	c-14.279,0-26.343-4.724-26.343-10.314V31.34c3.806,4.63,14.023,7.865,26.343,7.865c12.32,0,22.537-3.235,26.343-7.865V44.895z"/>
</svg>
