<?xml version="1.0" encoding="utf-8"?>
<!-- Generator: Adobe Illustrator 16.0.3, SVG Export Plug-In . SVG Version: 6.00 Build 0)  -->
<!DOCTYPE svg PUBLIC "-//W3C//DTD SVG 1.1//EN" "http://www.w3.org/Graphics/SVG/1.1/DTD/svg11.dtd">
<svg version="1.1" id="Layer_1" xmlns="http://www.w3.org/2000/svg" xmlns:xlink="http://www.w3.org/1999/xlink" x="0px" y="0px"
	 width="30px" height="30px" viewBox="0 0 30 30" enable-background="new 0 0 30 30" xml:space="preserve">
<circle fill="none" cx="15" cy="15.894" r="5.317"/>
<path fill="#83B04A" d="M8.71,5.417H4.312V5.124c0-0.608,0.492-1.101,1.1-1.101h2.198c0.607,0,1.101,0.492,1.101,1.101V5.417z
	 M29.481,8.01v15.766c0,1.217-0.984,2.201-2.199,2.201H2.719c-1.215,0-2.2-0.984-2.2-2.201V8.01c0-1.215,0.985-2.2,2.2-2.2h17.311
	l0.06,0.041l-0.596,0.408c-0.273,0.188-0.392,0.539-0.288,0.85c0.096,0.296,0.368,0.5,0.733,0.519l0.722-0.021l-0.241,0.679
	c-0.111,0.312-0.001,0.665,0.266,0.858c0.128,0.093,0.28,0.143,0.439,0.143c0.162,0,0.323-0.053,0.458-0.155l0.57-0.439l0.205,0.695
	c0.097,0.319,0.386,0.534,0.719,0.534s0.622-0.215,0.72-0.538L24,8.691l0.574,0.442c0.13,0.098,0.291,0.152,0.454,0.152
	c0.158,0,0.31-0.048,0.442-0.143c0.266-0.194,0.374-0.547,0.264-0.857l-0.241-0.68l0.752,0.021c0.336-0.012,0.605-0.212,0.701-0.514
	c0.104-0.314-0.014-0.665-0.288-0.854L26.063,5.85l0.06-0.041h1.159C28.497,5.81,29.481,6.795,29.481,8.01z M20.317,15.894
	c0-2.937-2.38-5.317-5.317-5.317c-2.936,0-5.316,2.381-5.316,5.317s2.381,5.317,5.316,5.317
	C17.938,21.211,20.317,18.83,20.317,15.894z M26.376,6.67c0.091,0.063,0.131,0.178,0.096,0.283
	c-0.033,0.105-0.121,0.168-0.244,0.173l-1.45-0.041l0.486,1.367c0.037,0.104,0.001,0.221-0.088,0.286
	c-0.09,0.064-0.212,0.063-0.3-0.004L23.727,7.85l-0.41,1.392c-0.032,0.106-0.13,0.179-0.24,0.179s-0.208-0.073-0.24-0.179
	l-0.41-1.392l-1.148,0.885c-0.089,0.066-0.211,0.068-0.299,0.004c-0.09-0.065-0.126-0.182-0.089-0.286l0.486-1.367l-1.451,0.041
	c-0.114-0.006-0.21-0.067-0.244-0.173c-0.035-0.105,0.005-0.221,0.096-0.283l1.197-0.82l-0.06-0.041l-1.138-0.78
	c-0.091-0.063-0.131-0.178-0.096-0.283c0.034-0.105,0.132-0.163,0.244-0.173l1.451,0.041L20.89,3.248
	c-0.037-0.104-0.001-0.221,0.089-0.286c0.088-0.065,0.21-0.063,0.299,0.004l1.148,0.884l0.41-1.392c0.064-0.213,0.416-0.213,0.48,0
	l0.41,1.392l1.149-0.885c0.088-0.068,0.21-0.069,0.3-0.004c0.089,0.065,0.125,0.182,0.088,0.286l-0.486,1.366l1.45-0.04
	c0.121,0.008,0.211,0.067,0.244,0.173c0.035,0.105-0.005,0.221-0.096,0.283l-1.138,0.78l-0.06,0.041L26.376,6.67z M25.393,6.603
	l-0.798-0.547c-0.067-0.046-0.108-0.124-0.108-0.206c0-0.014,0.008-0.027,0.01-0.041c0.012-0.066,0.043-0.127,0.099-0.166
	l0.798-0.547l-0.967,0.027c-0.069,0.017-0.16-0.036-0.209-0.103s-0.061-0.153-0.033-0.231l0.324-0.911l-0.766,0.589
	c-0.064,0.051-0.15,0.066-0.229,0.04c-0.078-0.025-0.14-0.088-0.163-0.167l-0.273-0.929l-0.273,0.929
	c-0.023,0.079-0.085,0.142-0.163,0.167c-0.078,0.026-0.164,0.012-0.229-0.04L21.646,3.88l0.324,0.91
	c0.027,0.078,0.016,0.164-0.033,0.231c-0.048,0.066-0.142,0.101-0.209,0.103L20.76,5.097l0.798,0.547
	c0.056,0.039,0.087,0.1,0.099,0.166c0.002,0.014,0.01,0.026,0.01,0.041c0,0.083-0.041,0.16-0.108,0.206L20.76,6.603l0.968-0.027
	c0.086,0,0.161,0.037,0.209,0.103c0.049,0.067,0.061,0.153,0.033,0.231l-0.324,0.91l0.765-0.589
	c0.044-0.034,0.098-0.052,0.152-0.052c0.026,0,0.052,0.004,0.077,0.012c0.078,0.025,0.14,0.088,0.163,0.167l0.273,0.929l0.273-0.929
	c0.023-0.079,0.085-0.142,0.163-0.167c0.079-0.024,0.165-0.011,0.229,0.04l0.766,0.589l-0.324-0.91
	c-0.027-0.078-0.016-0.164,0.033-0.231c0.048-0.067,0.121-0.122,0.209-0.103L25.393,6.603z"/>
</svg>
