<?xml version="1.0" encoding="utf-8"?>
<!-- Generator: Adobe Illustrator 16.0.3, SVG Export Plug-In . SVG Version: 6.00 Build 0)  -->
<!DOCTYPE svg PUBLIC "-//W3C//DTD SVG 1.1//EN" "http://www.w3.org/Graphics/SVG/1.1/DTD/svg11.dtd">
<svg version="1.1" id="Layer_1" xmlns="http://www.w3.org/2000/svg" xmlns:xlink="http://www.w3.org/1999/xlink" x="0px" y="0px"
	 width="75px" height="75px" viewBox="0 0 75 75" enable-background="new 0 0 75 75" xml:space="preserve">
<g>
	<path fill="#6699CC" d="M50.955,23.981l-17.298-7.355c-0.446-0.19-0.959,0.018-1.147,0.463c-0.189,0.445,0.018,0.958,0.463,1.147
		l17.296,7.355c0.112,0.047,0.229,0.07,0.344,0.07c0.34,0,0.664-0.2,0.806-0.533C51.605,24.684,51.398,24.17,50.955,23.981z"/>
	<path fill="#6699CC" d="M37.581,23.984l-5.931-2.612c-0.443-0.195-0.959,0.006-1.153,0.448c-0.195,0.442,0.006,0.958,0.448,1.153
		l5.931,2.612c0.115,0.05,0.234,0.074,0.352,0.074c0.336,0,0.657-0.195,0.801-0.522C38.225,24.695,38.023,24.179,37.581,23.984z"/>
	<path fill="#6699CC" d="M56.841,27.021h-0.973l2.483-5.843c0.545-1.285-0.057-2.775-1.34-3.322l-2.213-0.94l1.564-5.533
		c0.379-1.344-0.406-2.746-1.75-3.125l-24.202-6.84c-1.341-0.379-2.748,0.405-3.127,1.75l-3.206,11.346
		c-0.021,0.075-0.016,0.149-0.017,0.224l-0.817-0.103c-0.67-0.085-1.336,0.098-1.87,0.513c-0.535,0.416-0.875,1.014-0.958,1.685
		l-1.28,10.189H18.16c-1.549,0-2.809,1.26-2.809,2.809c0,0.034,0.002,0.068,0.006,0.103l4.831,40.993
		c0.03,1.523,1.278,2.753,2.808,2.753h29.007c1.53,0,2.778-1.229,2.808-2.753l4.834-40.993c0.004-0.034,0.006-0.068,0.006-0.103
		C59.648,28.281,58.391,27.021,56.841,27.021z M56.328,19.466c0.396,0.169,0.581,0.631,0.412,1.028l-2.555,6.01
		c-0.072,0.171-0.07,0.348-0.035,0.517H24.933l7.222-16.982c0.082-0.192,0.233-0.341,0.427-0.419c0.195-0.079,0.408-0.077,0.6,0.005
		l20.276,8.621c0.019,0.006,0.03,0.021,0.05,0.026c0.006,0.001,0.012,0.001,0.016,0.002L56.328,19.466z M28.969,3.642
		c0.118-0.416,0.549-0.659,0.968-0.541L54.139,9.94c0.416,0.118,0.658,0.552,0.543,0.967l-1.505,5.318l-19.311-8.21
		c-0.624-0.265-1.312-0.271-1.939-0.018c-0.628,0.253-1.119,0.736-1.383,1.358l-2.517,5.918c-0.062-0.023-0.12-0.054-0.188-0.063
		l-2.065-0.259L28.969,3.642z M22.152,17.049c0.026-0.208,0.131-0.393,0.296-0.521c0.166-0.128,0.374-0.185,0.579-0.159l4.304,0.54
		l-4.037,9.495c-0.087,0.205-0.082,0.421-0.017,0.617H20.9L22.152,17.049z M53.066,70.768c-0.004,0.034-0.006,0.068-0.006,0.104
		c0,0.584-0.475,1.059-1.059,1.059H22.996c-0.583,0-1.059-0.475-1.059-1.059c0-0.034-0.002-0.068-0.006-0.104l-4.829-40.98
		c0.023-0.563,0.489-1.015,1.058-1.015h38.681c0.569,0,1.034,0.451,1.058,1.015L53.066,70.768z"/>
	<path fill="#6699CC" d="M28.884,63.443c-0.48,0.055-0.826,0.486-0.772,0.968l0.326,2.907c0.05,0.447,0.429,0.777,0.869,0.777
		c0.032,0,0.065-0.002,0.099-0.006c0.48-0.054,0.826-0.486,0.772-0.967l-0.326-2.908C29.797,63.734,29.364,63.382,28.884,63.443z"/>
	<path fill="#6699CC" d="M26.532,42.486c0.48-0.055,0.826-0.486,0.772-0.967l-0.759-6.771c-0.054-0.479-0.479-0.819-0.967-0.772
		c-0.48,0.054-0.826,0.487-0.772,0.967l0.759,6.771c0.05,0.447,0.429,0.777,0.869,0.777C26.466,42.492,26.499,42.49,26.532,42.486z"
		/>
	<path fill="#6699CC" d="M46.116,63.445c-0.485-0.057-0.914,0.291-0.968,0.771l-0.325,2.906c-0.056,0.48,0.29,0.913,0.771,0.967
		c0.033,0.004,0.066,0.006,0.1,0.006c0.438,0,0.818-0.33,0.867-0.777l0.326-2.905C46.941,63.934,46.598,63.5,46.116,63.445z"/>
	<path fill="#6699CC" d="M49.421,33.976c-0.487-0.052-0.913,0.292-0.967,0.772l-0.731,6.525c-0.056,0.479,0.291,0.912,0.771,0.967
		c0.032,0.004,0.065,0.006,0.099,0.006c0.439,0,0.818-0.33,0.868-0.777l0.731-6.525C50.247,34.463,49.9,34.03,49.421,33.976z"/>
	<path fill="#6699CC" d="M37.306,64.895c-0.483,0-0.875,0.392-0.875,0.875v1.453c0,0.482,0.392,0.875,0.875,0.875
		s0.875-0.393,0.875-0.875V65.77C38.182,65.285,37.789,64.895,37.306,64.895z"/>
	<path fill="#6699CC" d="M37.306,37.75c0.483,0,0.875-0.392,0.875-0.875v-2.029c0-0.483-0.393-0.875-0.875-0.875
		s-0.875,0.392-0.875,0.875v2.029C36.431,37.358,36.822,37.75,37.306,37.75z"/>
	<path fill="#6699CC" d="M37.5,40.496c-6.108,0-11.078,4.97-11.078,11.079c0,6.108,4.97,11.077,11.078,11.077
		c6.109,0,11.079-4.969,11.079-11.077C48.578,45.466,43.607,40.496,37.5,40.496z M37.5,60.902c-5.144,0-9.328-4.185-9.328-9.327
		c0-5.146,4.185-9.329,9.328-9.329c5.145,0,9.329,4.186,9.329,9.329C46.828,56.719,42.645,60.902,37.5,60.902z"/>
	<path fill="#6699CC" d="M38.74,51.574l4.164-4.165c0.341-0.343,0.341-0.896,0-1.238c-0.342-0.342-0.896-0.342-1.238,0L37.5,50.336
		l-4.166-4.165c-0.342-0.342-0.896-0.342-1.237,0c-0.341,0.343-0.342,0.896,0,1.238l4.165,4.165l-4.165,4.165
		c-0.342,0.342-0.342,0.896,0,1.237c0.171,0.172,0.395,0.256,0.619,0.256c0.224,0,0.448-0.084,0.619-0.256l4.166-4.164l4.166,4.164
		c0.171,0.172,0.396,0.256,0.619,0.256c0.223,0,0.448-0.084,0.618-0.256c0.342-0.342,0.342-0.896,0-1.237L38.74,51.574z"/>
</g>
</svg>
