<?xml version="1.0" encoding="utf-8"?>
<!-- Generator: Adobe Illustrator 16.0.3, SVG Export Plug-In . SVG Version: 6.00 Build 0)  -->
<!DOCTYPE svg PUBLIC "-//W3C//DTD SVG 1.1//EN" "http://www.w3.org/Graphics/SVG/1.1/DTD/svg11.dtd">
<svg version="1.1" id="Layer_1" xmlns="http://www.w3.org/2000/svg" xmlns:xlink="http://www.w3.org/1999/xlink" x="0px" y="0px"
	 width="20px" height="20px" viewBox="0 0 20 20" enable-background="new 0 0 20 20" xml:space="preserve">
<g id="Layer_1_1_" display="none">
	<path display="inline" fill="#E8AE4A" d="M10,0C4.477,0,0,4.478,0,10c0,5.521,4.477,10,10,10c5.521,0,10-4.479,10-10
		C20,4.478,15.521,0,10,0z M11.329,16.83c-0.362,0.361-0.804,0.545-1.313,0.545s-0.949-0.184-1.312-0.545
		c-0.361-0.362-0.544-0.805-0.544-1.313c0-0.509,0.18-0.951,0.537-1.316c0.357-0.363,0.802-0.551,1.318-0.551
		c0.512,0,0.953,0.184,1.313,0.543c0.359,0.361,0.542,0.808,0.542,1.324C11.871,16.027,11.688,16.468,11.329,16.83z M11.389,7.468
		l-0.535,2.207c-0.185,0.771-0.322,1.7-0.409,2.763c-0.01,0.111-0.104,0.198-0.216,0.198H9.783c-0.114,0-0.209-0.089-0.216-0.202
		c-0.046-0.754-0.201-1.683-0.46-2.759L8.58,7.467C8.257,6.115,8.099,5.169,8.099,4.572c0-0.576,0.177-1.049,0.527-1.406
		c0.351-0.358,0.813-0.541,1.37-0.541c0.543,0,1.004,0.183,1.363,0.544c0.358,0.36,0.541,0.822,0.541,1.373
		C11.9,5.077,11.734,6.033,11.389,7.468z"/>
</g>
<g id="Layer_1_copy_3" display="none">
	<path display="inline" fill="#4675B8" d="M10,0C4.477,0,0,4.478,0,10c0,5.521,4.477,10,10,10c5.521,0,10-4.479,10-10
		C20,4.478,15.521,0,10,0z M11.329,16.83c-0.362,0.361-0.804,0.545-1.313,0.545s-0.949-0.184-1.312-0.545
		c-0.361-0.362-0.544-0.805-0.544-1.313c0-0.509,0.18-0.951,0.537-1.316c0.357-0.363,0.802-0.551,1.318-0.551
		c0.512,0,0.953,0.184,1.313,0.543c0.359,0.361,0.542,0.808,0.542,1.324C11.871,16.027,11.688,16.468,11.329,16.83z M11.389,7.468
		l-0.535,2.207c-0.185,0.771-0.322,1.7-0.409,2.763c-0.01,0.111-0.104,0.198-0.216,0.198H9.783c-0.114,0-0.209-0.089-0.216-0.202
		c-0.046-0.754-0.201-1.683-0.46-2.759L8.58,7.467C8.257,6.115,8.099,5.169,8.099,4.572c0-0.576,0.177-1.049,0.527-1.406
		c0.351-0.358,0.813-0.541,1.37-0.541c0.543,0,1.004,0.183,1.363,0.544c0.358,0.36,0.541,0.822,0.541,1.373
		C11.9,5.077,11.734,6.033,11.389,7.468z"/>
</g>
<g id="Layer_1_copy" display="none">
	<path display="inline" fill="#A32430" d="M10,0C4.477,0,0,4.478,0,10c0,5.521,4.477,10,10,10c5.521,0,10-4.479,10-10
		C20,4.478,15.521,0,10,0z M15.159,13.764c0.187,0.188,0.288,0.437,0.288,0.697c0,0.262-0.102,0.51-0.288,0.695
		c-0.185,0.184-0.438,0.289-0.698,0.289c-0.262,0-0.518-0.105-0.697-0.291L10,11.393l-3.764,3.765c-0.361,0.36-1.033,0.36-1.393,0
		c-0.187-0.185-0.29-0.433-0.29-0.695s0.103-0.512,0.289-0.696l3.764-3.767L4.842,6.234c-0.385-0.384-0.385-1.01,0-1.394
		c0.359-0.361,1.032-0.361,1.394,0L10,8.604l3.766-3.765c0.356-0.359,1.033-0.361,1.395,0c0.188,0.185,0.288,0.433,0.288,0.697
		c0.001,0.264-0.103,0.511-0.288,0.697l-3.766,3.764L15.159,13.764z"/>
</g>
<g id="Layer_1_copy_2">
	<path fill="#3ABFBF" d="M10,0C4.477,0,0,4.478,0,10c0,5.521,4.477,10,10,10c5.521,0,10-4.479,10-10C20,4.478,15.521,0,10,0z
		 M15.458,6.018l-5.944,9.089c-0.031,0.048-0.07,0.088-0.115,0.121l-0.088,0.063c-0.03,0.021-0.063,0.04-0.097,0.053l-0.189,0.075
		c-0.048,0.019-0.1,0.03-0.152,0.032l-0.146,0.004c-0.005,0-0.009,0-0.014,0c-0.026,0-0.052-0.003-0.078-0.008l-0.309-0.096
		c-0.058-0.022-0.11-0.058-0.154-0.101c-0.025-0.017-0.077-0.056-0.099-0.074l-3.381-3.133c-0.185-0.171-0.295-0.405-0.307-0.661
		c-0.01-0.256,0.079-0.497,0.251-0.683c0.357-0.378,0.974-0.398,1.349-0.054l2.597,2.399l5.277-8.069
		c0.277-0.426,0.895-0.558,1.322-0.276c0.211,0.137,0.357,0.352,0.41,0.602C15.645,5.554,15.596,5.807,15.458,6.018z"/>
</g>
</svg>
