<?xml version="1.0" encoding="utf-8"?>
<!-- Generator: Adobe Illustrator 16.0.3, SVG Export Plug-In . SVG Version: 6.00 Build 0)  -->
<!DOCTYPE svg PUBLIC "-//W3C//DTD SVG 1.1//EN" "http://www.w3.org/Graphics/SVG/1.1/DTD/svg11.dtd">
<svg version="1.1" id="Layer_1" xmlns="http://www.w3.org/2000/svg" xmlns:xlink="http://www.w3.org/1999/xlink" x="0px" y="0px"
	 width="75px" height="75px" viewBox="0 0 75 75" enable-background="new 0 0 75 75" xml:space="preserve">
<g>
	<path fill="#6699CC" d="M13.333,10.792c-0.483,0-0.875,0.392-0.875,0.875v2.167c0,0.483,0.392,0.875,0.875,0.875
		s0.875-0.392,0.875-0.875v-2.167C14.208,11.183,13.817,10.792,13.333,10.792z"/>
	<path fill="#6699CC" d="M34.926,34.313V11.001c0-0.167-0.059-0.314-0.141-0.447c-0.044-0.108-0.109-0.21-0.198-0.297l-6.291-6.118
		C28.267,4.111,28.23,4.1,28.199,4.077c-0.161-0.181-0.388-0.301-0.649-0.301H11.926c-1.034,0-1.875,0.841-1.875,1.875v28.662
		c0,1.034,0.841,1.875,1.875,1.875h21.125C34.084,36.188,34.926,35.346,34.926,34.313z M28.425,6.706l3.517,3.42H28.55
		c-0.069,0-0.125-0.056-0.125-0.125V6.706z M11.801,34.313V5.65c0-0.069,0.056-0.125,0.125-0.125h14.749v4.476
		c0,1.034,0.841,1.875,1.875,1.875h4.626v22.437c0,0.069-0.056,0.125-0.125,0.125H11.926C11.857,34.438,11.801,34.381,11.801,34.313
		z"/>
	<path fill="#6699CC" d="M64.809,45.588c-0.045-0.105-0.109-0.207-0.197-0.293l-6.291-6.119c-0.028-0.027-0.064-0.039-0.096-0.062
		c-0.16-0.183-0.389-0.302-0.649-0.302H41.949c-1.034,0-1.875,0.84-1.875,1.875V69.35c0,1.034,0.841,1.875,1.875,1.875h21.125
		c1.033,0,1.875-0.841,1.875-1.875V46.037C64.949,45.869,64.891,45.723,64.809,45.588z M58.449,41.743l3.515,3.419h-3.39
		c-0.069,0-0.125-0.057-0.125-0.125V41.743z M63.199,69.35c0,0.069-0.057,0.125-0.125,0.125H41.949
		c-0.069,0-0.125-0.056-0.125-0.125V40.688c0-0.068,0.056-0.125,0.125-0.125h14.75v4.476c0,1.034,0.841,1.875,1.875,1.875h4.625
		V69.35z"/>
	<path fill="#6699CC" d="M44.533,44.016c-0.483,0-0.875,0.393-0.875,0.875v2.168c0,0.482,0.392,0.875,0.875,0.875
		c0.482,0,0.875-0.393,0.875-0.875v-2.168C45.408,44.407,45.018,44.016,44.533,44.016z"/>
	<path fill="#6699CC" d="M47.535,44.016c-0.483,0-0.875,0.393-0.875,0.875v2.168c0,0.482,0.392,0.875,0.875,0.875
		c0.482,0,0.875-0.393,0.875-0.875v-2.168C48.41,44.407,48.02,44.016,47.535,44.016z"/>
	<polygon fill="#6699CC" points="31.548,44.113 25.648,42.532 27.229,48.432 28.769,46.893 34.5,52.622 35.737,51.384 
		30.007,45.652 	"/>
	<polygon fill="#6699CC" points="43.452,30.886 49.352,32.467 47.771,26.567 46.23,28.108 40.501,22.378 39.264,23.616 
		44.992,29.346 	"/>
</g>
</svg>
