<?xml version="1.0" encoding="utf-8"?>
<!-- Generator: Adobe Illustrator 16.0.3, SVG Export Plug-In . SVG Version: 6.00 Build 0)  -->
<!DOCTYPE svg PUBLIC "-//W3C//DTD SVG 1.1//EN" "http://www.w3.org/Graphics/SVG/1.1/DTD/svg11.dtd">
<svg version="1.1" id="Layer_1" xmlns="http://www.w3.org/2000/svg" xmlns:xlink="http://www.w3.org/1999/xlink" x="0px" y="0px"
	 width="75px" height="75px" viewBox="0 0 75 75" enable-background="new 0 0 75 75" xml:space="preserve">
<g>
	<path fill="#6699CC" d="M48.201,23.882l-17.297-7.355c-0.446-0.188-0.959,0.018-1.147,0.463c-0.189,0.445,0.018,0.958,0.463,1.147
		l17.295,7.355c0.112,0.047,0.229,0.07,0.344,0.07c0.34,0,0.664-0.2,0.806-0.533C48.854,24.585,48.646,24.071,48.201,23.882z"/>
	<path fill="#6699CC" d="M34.828,23.886l-5.931-2.612c-0.445-0.195-0.959,0.006-1.153,0.448c-0.195,0.442,0.006,0.958,0.448,1.153
		l5.931,2.612c0.115,0.05,0.234,0.074,0.352,0.074c0.336,0,0.657-0.195,0.801-0.522C35.471,24.597,35.271,24.081,34.828,23.886z"/>
	<path fill="#6699CC" d="M54.087,26.923h-0.974l2.484-5.843c0.545-1.285-0.057-2.775-1.341-3.322l-2.211-0.94l1.563-5.534
		c0.379-1.344-0.405-2.746-1.75-3.125l-24.201-6.84c-1.35-0.379-2.748,0.405-3.127,1.75l-3.207,11.346
		c-0.021,0.075-0.016,0.149-0.017,0.224l-0.816-0.103c-1.38-0.168-2.655,0.812-2.83,2.198l-1.28,10.189h-0.976
		c-1.549,0-2.809,1.26-2.809,2.809c0,0.034,0.002,0.068,0.006,0.103l4.831,40.993c0.03,1.523,1.278,2.753,2.808,2.753H49.25
		c1.529,0,2.777-1.229,2.809-2.753l4.832-40.993c0.004-0.034,0.006-0.068,0.006-0.103C56.896,28.183,55.637,26.923,54.087,26.923z
		 M53.986,20.396l-2.555,6.01c-0.072,0.171-0.07,0.348-0.035,0.517H22.179L29.4,9.941c0.169-0.397,0.63-0.584,1.028-0.415
		l20.28,8.623c0.017,0.006,0.028,0.019,0.046,0.024c0.005,0.001,0.01,0,0.016,0.002l2.804,1.192
		C53.971,19.537,54.156,19.999,53.986,20.396z M26.216,3.543c0.118-0.416,0.549-0.661,0.968-0.541l24.201,6.839
		c0.416,0.118,0.659,0.552,0.543,0.967l-1.504,5.318l-19.311-8.21c-1.285-0.547-2.776,0.055-3.323,1.34l-2.517,5.918
		c-0.063-0.023-0.12-0.054-0.188-0.063l-2.065-0.259L26.216,3.543z M19.399,16.952c0.054-0.429,0.439-0.733,0.875-0.68l4.303,0.54
		l-4.037,9.495c-0.087,0.205-0.082,0.421-0.017,0.617h-2.377L19.399,16.952z M50.314,70.669c-0.004,0.034-0.006,0.067-0.006,0.103
		c0,0.584-0.476,1.06-1.06,1.06H20.243c-0.583,0-1.059-0.476-1.059-1.06c0-0.033-0.002-0.067-0.006-0.103l-4.83-40.981
		c0.023-0.563,0.489-1.015,1.058-1.015h38.68c0.568,0,1.034,0.451,1.059,1.015L50.314,70.669z"/>
	<path fill="#6699CC" d="M32.34,58.307h-4.416c-1.123,0-1.969-0.352-2.322-0.964s-0.234-1.521,0.328-2.491l0.327-0.565l1.131,0.653
		l0.001-4.362l-3.779,2.18l1.131,0.653l-0.326,0.564c-0.896,1.551-1.013,3.058-0.329,4.242c0.685,1.188,2.048,1.84,3.838,1.84h4.416
		c0.483,0,0.875-0.392,0.875-0.875C33.215,58.699,32.824,58.307,32.34,58.307z"/>
	<path fill="#6699CC" d="M39.508,46.949l-0.003-4.362l-1.13,0.653l-0.365-0.631c-0.549-0.951-1.248-1.637-2.074-2.035
		c-0.927-0.45-1.947-0.451-2.874-0.004c-0.831,0.402-1.53,1.088-2.079,2.037l-2.222,3.843c-0.242,0.419-0.099,0.954,0.319,1.196
		c0.138,0.078,0.289,0.117,0.437,0.117c0.302,0,0.596-0.156,0.758-0.438l2.222-3.844c0.371-0.642,0.816-1.092,1.325-1.336
		c0.448-0.217,0.902-0.217,1.35,0.002c0.506,0.244,0.951,0.692,1.322,1.336l0.365,0.631l-1.131,0.654L39.508,46.949z"/>
	<path fill="#6699CC" d="M42.328,50.08c-0.241-0.419-0.776-0.561-1.195-0.32c-0.419,0.242-0.563,0.777-0.32,1.195l2.252,3.896
		c0.562,0.971,0.682,1.879,0.328,2.49c-0.354,0.613-1.199,0.965-2.322,0.965h-0.637V57l-3.779,2.182l3.779,2.183v-1.308h0.637
		c1.791,0,3.154-0.652,3.839-1.841c0.684-1.187,0.565-2.692-0.33-4.241L42.328,50.08z"/>
	<path fill="#6699CC" d="M26.13,63.346c-0.48,0.055-0.826,0.486-0.772,0.967l0.327,2.908c0.05,0.447,0.429,0.777,0.869,0.777
		c0.033,0,0.065-0.002,0.099-0.006c0.48-0.055,0.826-0.486,0.772-0.967l-0.327-2.908C27.043,63.637,26.613,63.294,26.13,63.346z"/>
	<path fill="#6699CC" d="M24.216,47.162c0.032,0,0.065-0.002,0.099-0.006c0.48-0.055,0.826-0.486,0.772-0.967l-1.294-11.541
		c-0.054-0.48-0.482-0.826-0.967-0.772c-0.48,0.054-0.826,0.487-0.772,0.967l1.294,11.54C23.398,46.832,23.777,47.162,24.216,47.162
		z"/>
	<path fill="#6699CC" d="M43.361,63.348c-0.489-0.058-0.912,0.291-0.967,0.771l-0.326,2.906c-0.055,0.479,0.291,0.912,0.771,0.967
		c0.033,0.004,0.066,0.006,0.1,0.006c0.438,0,0.817-0.33,0.867-0.777l0.326-2.906C44.188,63.834,43.843,63.4,43.361,63.348z"/>
	<path fill="#6699CC" d="M46.668,33.877c-0.486-0.053-0.913,0.292-0.967,0.772l-1.297,11.563c-0.055,0.479,0.291,0.913,0.771,0.968
		c0.033,0.004,0.066,0.006,0.099,0.006c0.439,0,0.818-0.33,0.869-0.777l1.297-11.563C47.494,34.364,47.148,33.931,46.668,33.877z"/>
	<path fill="#6699CC" d="M34.553,63.373c-0.483,0-0.875,0.393-0.875,0.875v2.875c0,0.482,0.392,0.875,0.875,0.875
		c0.483,0,0.875-0.393,0.875-0.875v-2.875C35.428,63.766,35.037,63.373,34.553,63.373z"/>
	<path fill="#6699CC" d="M34.553,37.435c0.483,0,0.875-0.392,0.875-0.875v-1.813c0-0.483-0.392-0.875-0.875-0.875
		c-0.483,0-0.875,0.392-0.875,0.875v1.813C33.678,37.043,34.07,37.435,34.553,37.435z"/>
</g>
</svg>
