<?xml version="1.0" encoding="utf-8"?>
<!-- Generator: Adobe Illustrator 16.0.3, SVG Export Plug-In . SVG Version: 6.00 Build 0)  -->
<!DOCTYPE svg PUBLIC "-//W3C//DTD SVG 1.1//EN" "http://www.w3.org/Graphics/SVG/1.1/DTD/svg11.dtd">
<svg version="1.1" id="Layer_1" xmlns="http://www.w3.org/2000/svg" xmlns:xlink="http://www.w3.org/1999/xlink" x="0px" y="0px"
	 width="75px" height="75px" viewBox="0 0 75 75" enable-background="new 0 0 75 75" xml:space="preserve">
<g>
	<path fill="#21A0DF" d="M62.356,74.596H12.644c-1.585,0-2.875-1.29-2.875-2.875V3.279c0-1.585,1.29-2.875,2.875-2.875h49.713
		c1.585,0,2.875,1.29,2.875,2.875v68.441C65.231,73.306,63.941,74.596,62.356,74.596z M12.644,2.154
		c-0.62,0-1.125,0.505-1.125,1.125v68.441c0,0.62,0.505,1.125,1.125,1.125h49.713c0.62,0,1.125-0.505,1.125-1.125V3.279
		c0-0.62-0.505-1.125-1.125-1.125H12.644z"/>
</g>
<g>
	<path fill="#21A0DF" d="M53.625,16.858h-32.25c-0.483,0-0.875-0.392-0.875-0.875s0.392-0.875,0.875-0.875h32.25
		c0.483,0,0.875,0.392,0.875,0.875S54.108,16.858,53.625,16.858z"/>
</g>
<g>
	<path fill="#21A0DF" d="M53.625,27.617h-32.25c-0.483,0-0.875-0.392-0.875-0.875s0.392-0.875,0.875-0.875h32.25
		c0.483,0,0.875,0.392,0.875,0.875S54.108,27.617,53.625,27.617z"/>
</g>
<g>
	<path fill="#21A0DF" d="M53.625,38.375h-32.25c-0.483,0-0.875-0.392-0.875-0.875s0.392-0.875,0.875-0.875h32.25
		c0.483,0,0.875,0.392,0.875,0.875S54.108,38.375,53.625,38.375z"/>
</g>
<g>
	<path fill="#21A0DF" d="M29.373,49.133h-7.998c-0.483,0-0.875-0.392-0.875-0.875s0.392-0.875,0.875-0.875h7.998
		c0.483,0,0.875,0.392,0.875,0.875S29.856,49.133,29.373,49.133z"/>
</g>
<g>
	<path fill="#21A0DF" d="M27.763,59.893h-6.388c-0.483,0-0.875-0.392-0.875-0.875s0.392-0.875,0.875-0.875h6.388
		c0.483,0,0.875,0.392,0.875,0.875S28.247,59.893,27.763,59.893z"/>
</g>
<g>
	
		<path fill="none" stroke="#21A0DF" stroke-width="1.75" stroke-linecap="round" stroke-linejoin="round" stroke-miterlimit="10" d="
		M35.727,49.516"/>
</g>
<g>
	
		<path fill="none" stroke="#21A0DF" stroke-width="1.75" stroke-linecap="round" stroke-linejoin="round" stroke-miterlimit="10" d="
		M50.613,64.8"/>
</g>
<g>
	<g>
		<path fill="#21A0DF" d="M44.561,67.521c-6.457,0-11.71-5.253-11.71-11.71c0-0.719,0.066-1.438,0.195-2.141l1.721,0.318
			c-0.11,0.597-0.166,1.21-0.166,1.822c0,5.492,4.468,9.96,9.96,9.96c1.992,0,3.916-0.587,5.563-1.697l0.979,1.451
			C49.165,66.831,46.902,67.521,44.561,67.521z"/>
	</g>
	<g>
		<g>
			<polygon fill="#21A0DF" points="30.879,53.666 35.572,49.759 36.61,55.777 			"/>
		</g>
	</g>
</g>
<g>
	<g>
		<path fill="#21A0DF" d="M56.075,57.952l-1.721-0.316c0.11-0.6,0.166-1.214,0.166-1.824c0-5.492-4.468-9.96-9.96-9.96
			c-1.993,0-3.918,0.587-5.564,1.698l-0.979-1.451c1.937-1.307,4.199-1.997,6.543-1.997c6.457,0,11.71,5.253,11.71,11.71
			C56.271,56.528,56.205,57.248,56.075,57.952z"/>
	</g>
	<g>
		<g>
			<polygon fill="#21A0DF" points="58.242,57.958 53.548,61.865 52.511,55.847 			"/>
		</g>
	</g>
</g>
<g>
	
		<path fill="none" stroke="#21A0DF" stroke-width="1.75" stroke-linecap="round" stroke-linejoin="round" stroke-miterlimit="10" d="
		M38.507,46.824"/>
</g>
</svg>
