<?xml version="1.0" encoding="utf-8"?>
<!-- Generator: Adobe Illustrator 16.0.0, SVG Export Plug-In . SVG Version: 6.00 Build 0)  -->
<!DOCTYPE svg PUBLIC "-//W3C//DTD SVG 1.1//EN" "http://www.w3.org/Graphics/SVG/1.1/DTD/svg11.dtd">
<svg version="1.1" id="Layer_1" xmlns="http://www.w3.org/2000/svg" xmlns:xlink="http://www.w3.org/1999/xlink" x="0px" y="0px"
	 width="22px" height="22px" viewBox="0 0 22 22" enable-background="new 0 0 22 22" xml:space="preserve">
<path fill="#FFCC00" d="M13.039,7.954c-0.063-0.128-0.193-0.21-0.336-0.21c-0.119,0-0.207,0.054-0.268,0.102L9.84,9.838
	c-0.208,0.158-0.254,0.461-0.104,0.675l0.813,1.17l-1.521,1.93c-0.141,0.18-0.113,0.336-0.065,0.434
	c0.06,0.125,0.194,0.209,0.334,0.209c0.123,0,0.208-0.055,0.271-0.102l2.593-1.992c0.157-0.121,0.211-0.33,0.146-0.578
	c-0.012-0.041-0.027-0.076-0.052-0.114l-0.803-1.154l1.521-1.93C13.111,8.207,13.086,8.052,13.039,7.954z"/>
<path fill="#777777" d="M21.771,10.677L11.323,0.229c-0.088-0.086-0.202-0.135-0.324-0.135c-0.123,0-0.236,0.048-0.324,0.134
	L0.228,10.677c-0.086,0.088-0.134,0.201-0.134,0.324c0,0.122,0.048,0.236,0.134,0.324l10.448,10.446
	c0.087,0.088,0.202,0.135,0.324,0.135s0.237-0.047,0.324-0.135L21.77,11.324c0.088-0.085,0.137-0.201,0.137-0.323
	C21.904,10.879,21.855,10.765,21.771,10.677z M11.424,1.625l8.956,8.956h-2.989c-0.017,0-0.035,0.001-0.052,0.003l-5.915-5.913
	V1.625z M10.584,1.617v3.045l-5.92,5.919H1.62L10.584,1.617z M10.584,20.387L1.62,11.421h3.044l5.92,5.918V20.387z M10.999,16.504
	l-5.501-5.502L10.999,5.5l5.503,5.502L10.999,16.504z M11.424,20.377v-3.045l5.913-5.914c0.019,0.001,0.037,0.003,0.054,0.003h2.989
	L11.424,20.377z"/>
</svg>
