<?xml version="1.0" encoding="utf-8"?>
<!-- Generator: Adobe Illustrator 16.0.0, SVG Export Plug-In . SVG Version: 6.00 Build 0)  -->
<!DOCTYPE svg PUBLIC "-//W3C//DTD SVG 1.1//EN" "http://www.w3.org/Graphics/SVG/1.1/DTD/svg11.dtd">
<svg version="1.1" id="Layer_1" xmlns="http://www.w3.org/2000/svg" xmlns:xlink="http://www.w3.org/1999/xlink" x="0px" y="0px"
	 width="32px" height="32px" viewBox="0 0 32 32" enable-background="new 0 0 32 32" xml:space="preserve">
<path fill="#FFCE00" d="M18.955,11.586c-0.09-0.185-0.281-0.305-0.486-0.305c-0.174,0-0.301,0.079-0.389,0.147l-3.761,2.888
	c-0.301,0.229-0.368,0.669-0.151,0.979l1.179,1.696l-2.204,2.796c-0.204,0.262-0.165,0.486-0.096,0.629
	c0.086,0.181,0.281,0.303,0.484,0.303c0.178,0,0.302-0.081,0.391-0.149l3.76-2.887c0.229-0.173,0.305-0.478,0.209-0.836
	c-0.016-0.059-0.039-0.111-0.074-0.166l-1.164-1.672l2.205-2.797C19.061,11.952,19.023,11.729,18.955,11.586z"/>
<path fill="#00CCFF" d="M31.611,15.531L16.469,0.389C16.344,0.264,16.177,0.194,16,0.194c-0.178,0-0.344,0.069-0.47,0.194
	L0.389,15.531C0.264,15.656,0.195,15.822,0.195,16c0,0.177,0.069,0.344,0.194,0.469L15.531,31.61
	c0.126,0.126,0.292,0.194,0.47,0.194c0.177,0,0.344-0.068,0.469-0.194l15.142-15.142c0.125-0.124,0.195-0.291,0.195-0.469
	C31.807,15.823,31.736,15.656,31.611,15.531z M16.616,2.412l12.98,12.979h-4.334c-0.023,0-0.051,0.002-0.074,0.005l-8.572-8.57
	V2.412z M15.398,2.399v4.413l-8.579,8.578H2.406L15.398,2.399z M15.398,29.601L2.406,16.609h4.413l8.579,8.578V29.601z M16,23.974
	L8.027,16L16,8.026L23.975,16L16,23.974z M16.616,29.587v-4.413l8.57-8.569c0.025,0.003,0.053,0.005,0.076,0.005h4.334
	L16.616,29.587z"/>
<path fill="#3399CC" d="M16,8.026L8.027,16L16,23.974L23.975,16L16,8.026z M17.816,16.681c0.035,0.055,0.059,0.107,0.074,0.166
	c0.096,0.358,0.02,0.663-0.209,0.836l-3.76,2.887c-0.089,0.068-0.213,0.149-0.391,0.149c-0.203,0-0.398-0.122-0.484-0.303
	c-0.069-0.143-0.108-0.367,0.096-0.629l2.204-2.796l-1.179-1.696c-0.217-0.31-0.149-0.749,0.151-0.979l3.761-2.888
	c0.088-0.068,0.215-0.147,0.389-0.147c0.205,0,0.396,0.12,0.486,0.305c0.068,0.143,0.105,0.366-0.098,0.626l-2.205,2.797
	L17.816,16.681z M25.188,15.396l-8.572-8.57V2.412l12.98,12.979h-4.334C25.238,15.391,25.211,15.393,25.188,15.396z M6.819,15.391
	H2.406L15.398,2.399v4.413L6.819,15.391z M6.819,16.609l8.579,8.578v4.413L2.406,16.609H6.819z M25.262,16.609h4.334l-12.98,12.978
	v-4.413l8.57-8.569C25.211,16.607,25.238,16.609,25.262,16.609z"/>
</svg>
