<?xml version="1.0" encoding="utf-8"?>
<!-- Generator: Adobe Illustrator 16.0.0, SVG Export Plug-In . SVG Version: 6.00 Build 0)  -->
<!DOCTYPE svg PUBLIC "-//W3C//DTD SVG 1.1//EN" "http://www.w3.org/Graphics/SVG/1.1/DTD/svg11.dtd">
<svg version="1.1" id="Layer_1" xmlns="http://www.w3.org/2000/svg" xmlns:xlink="http://www.w3.org/1999/xlink" x="0px" y="0px"
	 width="16px" height="16px" viewBox="0 0 16 16" enable-background="new 0 0 16 16" xml:space="preserve">
<g>
	<path fill="#889EAA" d="M15.222,5.874c-0.616-0.81-1.511-1.331-2.52-1.468c-0.793-0.108-1.584,0.033-2.29,0.406
		c-0.095,0.05-0.188,0.103-0.276,0.161L9.819,5.211l0.819,1.077l0.25-0.189c0.05-0.032,0.103-0.062,0.155-0.09
		c0.455-0.24,0.965-0.331,1.476-0.262c0.65,0.088,1.228,0.425,1.625,0.947c0.397,0.522,0.567,1.168,0.479,1.818
		c-0.183,1.343-1.424,2.286-2.765,2.104c-0.511-0.069-0.979-0.294-1.354-0.646c-0.044-0.042-0.087-0.086-0.126-0.128L7.292,5.785
		L7.292,5.798L6.967,5.371L6.931,5.328C6.857,5.246,6.779,5.165,6.699,5.09C6.093,4.518,5.335,4.157,4.51,4.045
		C2.338,3.75,0.331,5.277,0.036,7.449c-0.295,2.171,1.232,4.178,3.404,4.473c0.827,0.113,1.652-0.034,2.39-0.423
		c0.03-0.017,0.058-0.033,0.088-0.05l-0.833-1.093c-0.457,0.214-0.959,0.294-1.463,0.225c-1.432-0.194-2.439-1.518-2.245-2.95
		c0.195-1.433,1.517-2.439,2.95-2.245c0.545,0.074,1.044,0.312,1.444,0.69c0.047,0.043,0.092,0.09,0.136,0.137l2.426,3.189
		l0.001-0.014l0.985,1.295l0.034,0.042c0.069,0.077,0.145,0.154,0.224,0.229c0.581,0.549,1.307,0.895,2.099,1.002
		c0.173,0.023,0.345,0.035,0.515,0.035c1.876,0,3.514-1.39,3.773-3.298C16.103,7.685,15.838,6.684,15.222,5.874z"/>
	<path fill="#00CCCC" d="M8.614,11.234c-0.013-0.014-0.026-0.026-0.038-0.039L7.012,9.143C6.944,9.066,6.87,8.99,6.792,8.916
		C6.211,8.368,5.485,8.023,4.693,7.915c-0.076-0.01-0.151-0.017-0.227-0.023H4.351l0.577,0.755C4.94,8.659,4.954,8.673,4.966,8.686
		l1.563,2.053c0.068,0.076,0.142,0.152,0.22,0.225c0.581,0.549,1.306,0.896,2.099,1.003c0.075,0.01,0.15,0.018,0.227,0.023H9.19
		L8.614,11.234z"/>
</g>
</svg>
