<?xml version="1.0" encoding="utf-8"?>
<!-- Generator: Adobe Illustrator 16.0.0, SVG Export Plug-In . SVG Version: 6.00 Build 0)  -->
<!DOCTYPE svg PUBLIC "-//W3C//DTD SVG 1.1//EN" "http://www.w3.org/Graphics/SVG/1.1/DTD/svg11.dtd" [
	<!ENTITY ns_flows "http://ns.adobe.com/Flows/1.0/">
	<!ENTITY ns_extend "http://ns.adobe.com/Extensibility/1.0/">
	<!ENTITY ns_ai "http://ns.adobe.com/AdobeIllustrator/10.0/">
	<!ENTITY ns_graphs "http://ns.adobe.com/Graphs/1.0/">
]>
<svg version="1.1" id="Layer_1" xmlns:x="&ns_extend;" xmlns:i="&ns_ai;" xmlns:graph="&ns_graphs;"
	 xmlns="http://www.w3.org/2000/svg" xmlns:xlink="http://www.w3.org/1999/xlink" xmlns:a="http://ns.adobe.com/AdobeSVGViewerExtensions/3.0/"
	 x="0px" y="0px" width="600px" height="400px" viewBox="0 -125 600 400" enable-background="new 0 -125 600 400"
	 xml:space="preserve">
<g>
	<g>
		<path fill="#5C6B73" d="M461.045-49.469c-13.746-18.064-33.701-29.694-56.178-32.739c-17.676-2.396-35.33,0.73-51.08,9.056
			c-2.104,1.107-4.16,2.307-6.145,3.575l-7.078,5.321l18.271,24.019l5.572-4.232c1.121-0.701,2.289-1.375,3.479-2.007
			c10.148-5.354,21.523-7.373,32.912-5.834c14.51,1.972,27.369,9.47,36.232,21.117c8.871,11.647,12.662,26.047,10.693,40.55
			c-4.064,29.937-31.746,50.981-61.664,46.925c-11.383-1.543-21.818-6.526-30.17-14.401c-0.998-0.947-1.939-1.905-2.813-2.851
			l-68.845-90.48l-0.023,0.283l-7.256-9.53l-0.784-0.954c-1.647-1.833-3.396-3.62-5.175-5.291
			c-13.519-12.753-30.406-20.811-48.829-23.319c-48.422-6.575-93.197,27.483-99.769,75.922
			c-6.575,48.428,27.48,93.187,75.916,99.754c18.43,2.507,36.847-0.757,53.292-9.446c0.671-0.351,1.313-0.729,1.969-1.09
			l-18.559-24.393c-10.197,4.793-21.403,6.56-32.642,5.034c-31.951-4.343-54.41-33.854-50.075-65.801
			c4.338-31.951,33.827-54.404,65.807-50.077c12.145,1.649,23.276,6.962,32.2,15.379c1.041,0.979,2.059,2.011,3.035,3.067
			l54.112,71.125l0.025-0.288l21.975,28.879l0.756,0.92c1.545,1.725,3.219,3.448,4.982,5.112
			C348.148,76.053,364.338,83.777,382,86.177c3.865,0.533,7.695,0.78,11.494,0.78c41.813-0.009,78.352-30.991,84.137-73.548
			C480.678-9.075,474.787-31.406,461.045-49.469z"/>
		<path fill="#66CCCA" d="M313.695,70.07c-0.279-0.289-0.586-0.577-0.854-0.866l-34.862-45.783
			c-1.517-1.696-3.168-3.388-4.907-5.031C260.115,6.169,243.928-1.554,226.262-3.957c-1.688-0.225-3.364-0.39-5.052-0.513h-2.586
			l12.864,16.837c0.274,0.28,0.587,0.575,0.851,0.86l34.866,45.787c1.521,1.694,3.168,3.387,4.909,5.023
			c12.959,12.22,29.142,19.95,46.806,22.342c1.689,0.236,3.369,0.395,5.055,0.521h2.58L313.695,70.07z"/>
	</g>
	<g>
		<path fill="#66CCCA" d="M305.638,230.569c-1.197-1.176-2.656-1.771-4.332-1.771c-1.672,0-3.13,0.598-4.329,1.774
			c-1.213,1.192-1.827,2.652-1.827,4.346c0,1.718,0.614,3.191,1.827,4.384c1.199,1.177,2.657,1.772,4.329,1.772
			c1.681,0,3.14-0.596,4.338-1.775c1.209-1.194,1.822-2.668,1.822-4.381C307.465,233.219,306.851,231.756,305.638,230.569z"/>
		<g>
			<path fill="#5C6B73" d="M385.161,157.189v-0.129v-0.412h-0.106c-0.146-0.635-0.459-1.222-0.913-1.715
				c-0.102-0.122-0.262-0.309-0.476-0.477c-0.064-0.049-0.136-0.089-0.206-0.126l-0.007-0.003l-0.141-0.077
				c-0.18-0.104-0.325-0.181-0.475-0.238c-0.255-0.11-0.54-0.192-0.833-0.239c-0.059-0.019-0.106-0.03-0.156-0.035
				c-0.147-0.02-0.262-0.022-0.381-0.022h-0.001h-0.078c-0.01,0-0.021,0-0.032,0c-0.171,0-0.281,0.003-0.393,0.018
				c-0.074,0.01-0.123,0.021-0.173,0.034c-0.298,0.053-0.581,0.135-0.854,0.248c-0.138,0.053-0.282,0.132-0.426,0.211l-0.131,0.076
				c-0.125,0.064-0.194,0.103-0.259,0.154c-0.215,0.164-0.377,0.352-0.491,0.493c-0.443,0.477-0.751,1.062-0.898,1.695h-0.068
				l-0.037,0.412v0.129v0.206c-0.007,0.026-0.01,0.06-0.01,0.097v0.031l0.008,0.08l0.002,0.859v27.892v0.127h0.001l-0.001,0.309
				v0.119l0.008,9.874l-0.008,9.864v0.129l0.001,0.31h-0.001v0.129v27.841v0.923c-0.007,0.024-0.01,0.06-0.01,0.099v0.028
				l0.008,0.081l0.002,0.193v0.129v0.412h0.105c0.147,0.634,0.458,1.222,0.914,1.715c0.151,0.187,0.303,0.342,0.476,0.474
				c0.064,0.052,0.135,0.09,0.206,0.126l0.149,0.087c0.2,0.109,0.334,0.184,0.476,0.236c0.257,0.11,0.543,0.192,0.833,0.24
				c0.04,0.015,0.101,0.031,0.161,0.036c0.137,0.016,0.253,0.019,0.374,0.019h0.148c0.119,0,0.235-0.003,0.355-0.018
				c0.078-0.008,0.138-0.024,0.197-0.04c0.269-0.044,0.556-0.126,0.833-0.242c0.122-0.045,0.256-0.119,0.388-0.193l0.165-0.093
				c0.124-0.066,0.194-0.104,0.259-0.155c0.171-0.134,0.324-0.286,0.493-0.496c0.441-0.477,0.75-1.062,0.896-1.693h0.069
				l0.037-0.412v-0.129v-0.207c0.006-0.023,0.01-0.06,0.01-0.098v-0.029l-0.009-0.08l-0.001-0.861v-27.89v-0.129h-0.002l0.002-0.309
				v-0.119l-0.009-9.874l0.009-9.864v-0.129l-0.002-0.31h0.002v-0.129v-27.841v-0.921c0.006-0.026,0.01-0.06,0.01-0.097v-0.031
				l-0.009-0.08L385.161,157.189z"/>
			<path fill="#5C6B73" d="M363.642,223.593c-1.639,0-2.675,1.138-3.592,2.145c-0.222,0.245-0.444,0.488-0.67,0.714
				c-4.262,4.264-9.473,6.425-15.491,6.425c-5.988,0-11.18-2.161-15.434-6.422c-4.259-4.25-6.418-9.46-6.418-15.484
				c0-6.016,2.159-11.215,6.417-15.456c4.265-4.241,9.456-6.394,15.435-6.394c6.017,0,11.23,2.147,15.498,6.377
				c0.248,0.249,0.483,0.513,0.715,0.773c0.901,1.009,1.831,2.057,3.505,2.057c2.104,0,3.817-1.711,3.817-3.815
				c0-1.115-0.523-2.211-1.4-2.933l-0.148-0.173c-0.374-0.419-0.747-0.84-1.138-1.229c-5.729-5.727-12.744-8.63-20.849-8.63
				c-8.073,0-15.071,2.903-20.799,8.63c-5.726,5.726-8.629,12.722-8.629,20.796c0,8.108,2.905,15.124,8.629,20.853
				c5.723,5.725,12.721,8.627,20.799,8.627c8.108,0,15.124-2.903,20.851-8.627l0.327-0.326c1.121-1.104,2.391-2.357,2.391-4.088
				C367.457,225.304,365.746,223.593,363.642,223.593z"/>
			<path fill="#5C6B73" d="M576.27,235.708l0.005-77.972l0.01-0.044c0.016-0.117,0.03-0.235,0.03-0.354
				c0-2.021-1.642-3.662-3.661-3.662c-1.51,0-2.883,0.955-3.417,2.376c-0.148,0.326-0.23,0.693-0.23,1.067v0.106
				c-0.007,0.03-0.012,0.07-0.012,0.109v0.029l0.01,0.092l-0.024,33.375c-0.196-0.216-0.397-0.429-0.603-0.638
				c-5.741-5.738-12.758-8.644-20.866-8.644c-8.074,0-15.071,2.903-20.796,8.629c-5.525,5.519-8.324,12.534-8.324,20.846
				c0,8.285,2.799,15.281,8.322,20.801c5.722,5.725,12.72,8.627,20.796,8.627c8.111,0,15.127-2.903,20.853-8.627
				c0.214-0.221,0.427-0.446,0.643-0.681v4.9c-0.007,0.032-0.011,0.072-0.011,0.113v0.028l0.009,0.094l0.002,0.099
				c0,0.375,0.082,0.744,0.243,1.099c0.535,1.41,1.876,2.34,3.405,2.34c2.019,0,3.66-1.641,3.66-3.658
				c0-0.122-0.014-0.24-0.03-0.359L576.27,235.708z M547.511,232.874c-6.016,0-11.228-2.153-15.486-6.393
				c-4.258-4.239-6.417-9.44-6.417-15.46c0-6.014,2.159-11.224,6.418-15.483c4.262-4.259,9.472-6.418,15.485-6.418
				c6.017,0,11.229,2.159,15.488,6.418c3.182,3.182,5.206,6.927,6.018,11.134l-0.016,8.857c-0.798,4.045-2.821,7.747-6.006,10.925
				C558.741,230.715,553.528,232.874,547.511,232.874z"/>
			<path fill="#5C6B73" d="M424.079,181.547c-8.077,0-15.075,2.903-20.804,8.629c-5.724,5.723-8.625,12.737-8.625,20.846
				c0,8.082,2.901,15.082,8.625,20.799c5.729,5.729,12.729,8.632,20.804,8.632c8.107,0,15.113-2.903,20.825-8.627
				c5.707-5.735,8.602-12.734,8.602-20.804c0-8.103-2.895-15.114-8.602-20.843C439.195,184.45,432.188,181.547,424.079,181.547z
				 M424.079,232.874c-6.021,0-11.235-2.153-15.492-6.393c-4.256-4.242-6.415-9.443-6.415-15.46c0-6.014,2.161-11.224,6.42-15.483
				c4.257-4.259,9.468-6.418,15.487-6.418c6.016,0,11.225,2.159,15.485,6.418c4.257,4.262,6.415,9.47,6.415,15.483
				c0,6.017-2.158,11.218-6.412,15.46C435.309,230.721,430.098,232.874,424.079,232.874z"/>
			<path fill="#5C6B73" d="M505.793,185.807c-2.018,0-3.659,1.644-3.659,3.661c0,0.059,0.007,0.113,0.015,0.168l0.005,29.258
				c0,3.874-1.421,7.229-4.227,9.972c-2.92,2.854-8.329,4.393-11.938,4.393c-4.44,0-9.219-1.772-11.887-4.412
				c-2.829-2.736-4.262-6.083-4.262-9.952v-29.282c0.011-0.052,0.016-0.099,0.016-0.144v-0.032l-0.013-0.106v-0.064l-0.013-0.056
				c-0.15-1.925-1.735-3.402-3.637-3.402c-2.018,0-3.659,1.641-3.659,3.661c0,0.109,0.013,0.22,0.027,0.325l0.015,0.091
				l-0.004,29.413c0.106,6.019,2.166,11.069,6.12,15.02c3.827,3.83,10.474,6.208,17.346,6.208c6.608,0,13.547-2.494,17.264-6.207
				c3.954-3.954,6.014-8.996,6.122-14.988v-29.542l0.01-0.045c0.011-0.091,0.023-0.179,0.023-0.274
				C509.454,187.45,507.813,185.807,505.793,185.807z"/>
		</g>
		<path fill="#3E5059" d="M115.191,239.357c-0.092-0.095-0.187-0.206-0.283-0.318c-0.152-0.178-0.31-0.358-0.465-0.506
			c-2.794-2.598-6.042-4.749-9.574-6.449c-4.631-2.231-9.765-3.672-15.143-4.138c-0.95-0.082-1.949-0.122-2.963-0.122
			c-3.878,0-7.742,0.603-11.48,1.185c-3.692,0.575-7.51,1.169-11.292,1.169c-1.788,0-3.438-0.129-5.043-0.393
			c-8.268-1.365-15.592-5.88-20.096-12.395c-4.826-6.981-6.526-16.369-4.662-25.756c0.082-0.409,0.211-0.807,0.309-1.213
			c1.856-7.615,6.706-14.472,13.219-18.495c4.822-3.003,10.729-4.591,17.084-4.591c2.812,0,5.616,0.314,8.339,0.939
			c6.824,1.563,13.078,5.532,17.159,10.885l0.264,0.371l0.187,0.263l0.011-0.009c0.871,1.217,1.636,2.493,2.275,3.807
			c2.363,4.676,3.521,10.303,3.422,15.948c-0.062,3.489-0.596,6.985-1.633,10.272c-0.406,1.286-0.928,2.533-1.505,3.753
			c-0.891,1.88-1.947,3.669-3.18,5.268c-0.273,0.353-0.589,0.715-0.896,1.076c0.507,0.022,1.028,0.022,1.513,0.064
			c3.187,0.273,6.28,0.909,9.245,1.822c0.109-0.169,0.224-0.342,0.322-0.501c3.759-6.126,5.757-13.316,6.038-20.6
			c0.346-8.969-1.918-18.08-6.795-25.52c-7.132-10.883-20.513-17.642-34.919-17.642c-2.055,0-4.119,0.139-6.136,0.413
			c-16.93,2.294-30.066,14.405-33.725,30.625c-0.271,1.198-0.5,2.413-0.663,3.654c-1.302,9.836,0.305,19.577,4.524,27.428
			c4.163,7.747,11.03,13.889,19.333,17.288c5.054,2.065,10.708,3.115,16.811,3.115c1.157,0,2.345-0.037,3.525-0.115l0.008-0.207
			c0.005-0.002,0.009-0.002,0.014-0.002l0.033,0.206l0.264-0.03l0.265-0.027c0.653-0.066,1.303-0.138,1.953-0.211
			c1.326-0.155,2.584-0.408,4.077-0.824c0.109-0.03,0.22-0.058,0.33-0.085l0.256-0.063c3.198-0.934,6.821-1.425,10.492-1.425
			c4.505,0,8.798,0.714,12.416,2.061l0.248,0.081l1.345,0.435l0.549,0.186l0.064,0.024h0.069h14.189h0.974L115.191,239.357z"/>
		<path fill="#3E5059" d="M170.995,157.525h-0.413v0.412v41.64c0,7.277-0.683,13.11-4.088,19.699
			c-3.266,6.63-11.279,10.91-20.414,10.91c-12.482,0-18.392-7.86-20.354-11.237c-1.823-3.121-3.919-8.141-3.919-19.375v-41.637
			v-0.412h-0.413h-9.037h-0.413v0.412v40.507c0,9.531,0,16.418,5.929,26.577c6.166,10.83,18.849,14.688,28.66,14.688
			c16.931,0,25.332-10.377,28.155-14.84c4.892-7.563,5.754-14.546,5.754-26.426v-40.508v-0.412h-0.413h-9.034V157.525z"/>
		<path fill="#3E5059" d="M253.379,167.907c0.047,0,0.095-0.002,0.144-0.005l0.098-0.004c10.505,0,18.071,4.435,24.683,9.224
			l3.85,2.93l0.662,0.504v-0.831l0.005-9.931v-0.173l-0.121-0.121c-6.664-6.632-15.13-10.422-25.164-11.263
			c-1.29-0.108-2.65-0.164-4.157-0.171h-0.001h-0.002c-1.505,0.007-2.865,0.063-4.159,0.171
			c-10.033,0.841-18.499,4.631-25.164,11.263l-0.003,0.004l-0.066,0.061l0.11,0.186l-0.047,0.047l-0.156-0.136
			c-7.635,7.635-11.505,17.603-11.505,29.63c0,12.029,3.87,21.997,11.505,29.635l0.102,0.104l0.063,0.058
			c6.666,6.636,15.132,10.423,25.164,11.264c1.281,0.109,2.643,0.166,4.159,0.171c1.52-0.007,2.879-0.062,4.16-0.171
			c10.03-0.841,18.496-4.631,25.162-11.264l0.121-0.12v-0.173l-0.005-9.931v-0.831l-0.662,0.504l-3.857,2.935
			c-6.604,4.785-14.17,9.218-24.675,9.218l-0.098-0.004c-0.049-0.002-0.097-0.005-0.146-0.005c-9.03-0.052-16.544-2.994-22.34-8.743
			c-5.848-5.857-8.813-13.476-8.813-22.646c0-9.172,2.967-16.79,8.817-22.649C236.834,170.899,244.349,167.96,253.379,167.907z"/>
		<polygon fill="#3E5059" points="201.011,157.506 194.607,157.506 194.607,157.509 193.18,157.506 192.768,157.506 
			192.768,157.918 192.768,238.304 192.768,238.717 193.18,238.717 194.568,238.717 194.604,238.717 194.675,238.705 
			200.865,238.694 200.867,238.694 200.985,238.712 202.441,238.717 202.854,238.717 202.854,238.304 202.854,157.918 
			202.854,157.506 202.441,157.506 		"/>
	</g>
</g>
</svg>
