<?xml version="1.0" encoding="utf-8"?>
<!-- Generator: Adobe Illustrator 16.0.3, SVG Export Plug-In . SVG Version: 6.00 Build 0)  -->
<!DOCTYPE svg PUBLIC "-//W3C//DTD SVG 1.1//EN" "http://www.w3.org/Graphics/SVG/1.1/DTD/svg11.dtd">
<svg version="1.1" id="Layer_1" xmlns="http://www.w3.org/2000/svg" xmlns:xlink="http://www.w3.org/1999/xlink" x="0px" y="0px"
	 width="75px" height="75px" viewBox="0 0 75 75" enable-background="new 0 0 75 75" xml:space="preserve">
<g>
	<path fill="#21A0DF" d="M66.222,21.427c-0.045-0.116-0.109-0.225-0.205-0.316l-8.912-8.56c-0.028-0.027-0.065-0.039-0.097-0.061
		c-0.059-0.044-0.115-0.09-0.185-0.118s-0.142-0.034-0.215-0.043c-0.037-0.005-0.071-0.022-0.11-0.022H56.48h-0.001h-2.938
		c-0.024-0.032-0.038-0.07-0.068-0.099l-5.149-4.946c-0.031-0.03-0.071-0.042-0.105-0.067c-0.057-0.041-0.11-0.084-0.175-0.111
		c-0.071-0.029-0.146-0.035-0.22-0.044c-0.036-0.005-0.068-0.021-0.106-0.021H47.7c-0.001,0-0.001,0-0.002,0h-2.832
		c-0.045-0.119-0.109-0.232-0.207-0.326l-5.715-5.49c-0.029-0.028-0.066-0.04-0.099-0.063c-0.059-0.043-0.114-0.088-0.182-0.116
		c-0.073-0.03-0.15-0.037-0.227-0.046c-0.034-0.004-0.064-0.02-0.099-0.02h-0.016c-0.001,0-0.003,0-0.005,0H12.195
		c-1.364,0-2.474,1.11-2.474,2.474v53.894c0,1.363,1.11,2.473,2.474,2.473h3.38c0.139,0,0.266-0.039,0.383-0.098v4.954
		c0,1.384,1.126,2.51,2.51,2.51h4.018v4.508c0,1.411,1.148,2.56,2.56,2.56h38.701c1.411,0,2.559-1.148,2.559-2.56V21.791
		C66.306,21.66,66.272,21.539,66.222,21.427z M57.373,15.236l5.923,5.689l-5.923,0.023V15.236z M48.592,9.947l2.457,2.36h-2.457
		V9.947z M39.213,3.887l3.26,3.131h-3.26V3.887z M15.958,9.528v48.619c-0.117-0.059-0.244-0.098-0.383-0.098h-3.38
		c-0.399,0-0.724-0.324-0.724-0.723V3.433c0-0.399,0.325-0.724,0.724-0.724h25.268v4.31H18.468
		C17.084,7.019,15.958,8.144,15.958,9.528z M18.468,65.415c-0.419,0-0.76-0.341-0.76-0.76V9.528c0-0.418,0.341-0.759,0.76-0.759
		h28.374v3.539H25.046c-1.412,0-2.56,1.148-2.56,2.56v50.548H18.468z M64.556,71.673c0,0.446-0.362,0.81-0.809,0.81H25.046
		c-0.447,0-0.81-0.363-0.81-0.81V14.867c0-0.446,0.363-0.81,0.81-0.81h30.577v6.891c0,0.947,0.771,1.718,1.717,1.718h7.216V71.673z"
		/>
	<path fill="#21A0DF" d="M44.275,30.875c-5.292,0-10.153,2.768-12.878,7.269l-2.065-0.78l0.989,6.027l4.726-3.869l-1.983-0.749
		c2.281-3.57,6.112-5.841,10.337-6.118v0.848c0,0.483,0.392,0.875,0.875,0.875s0.875-0.392,0.875-0.875V32.67
		c6.646,0.435,11.966,5.755,12.401,12.402h-0.761c-0.483,0-0.875,0.392-0.875,0.875s0.392,0.875,0.875,0.875h0.761
		c-0.433,6.606-5.69,11.905-12.28,12.396v-0.873c0-0.483-0.392-0.875-0.875-0.875s-0.875,0.392-0.875,0.875v0.891
		c-6.105-0.344-11.233-4.811-12.34-10.889c-0.086-0.476-0.543-0.786-1.018-0.705c-0.476,0.087-0.791,0.543-0.704,1.018
		c1.304,7.162,7.535,12.359,14.815,12.359c0.032,0,0.064-0.005,0.097-0.005c0.009,0,0.016,0.005,0.024,0.005
		c0.015,0,0.026-0.008,0.041-0.008c8.234-0.088,14.908-6.809,14.908-15.064C59.346,37.637,52.585,30.875,44.275,30.875z"/>
	<path fill="#21A0DF" d="M43.379,53.71c0,0.483,0.392,0.875,0.875,0.875s0.875-0.392,0.875-0.875v-7.4l4.132-4.13
		c0.341-0.342,0.342-0.896,0-1.237c-0.342-0.344-0.897-0.343-1.237-0.001l-4.388,4.387c-0.081,0.081-0.145,0.178-0.189,0.285
		c-0.044,0.106-0.067,0.221-0.067,0.334l0,0V53.71z"/>
</g>
</svg>
