<?xml version="1.0" encoding="utf-8"?>
<!-- Generator: Adobe Illustrator 16.0.3, SVG Export Plug-In . SVG Version: 6.00 Build 0)  -->
<!DOCTYPE svg PUBLIC "-//W3C//DTD SVG 1.1//EN" "http://www.w3.org/Graphics/SVG/1.1/DTD/svg11.dtd">
<svg version="1.1" id="Layer_1" xmlns="http://www.w3.org/2000/svg" xmlns:xlink="http://www.w3.org/1999/xlink" x="0px" y="0px"
	 width="75px" height="75px" viewBox="0 0 75 75" enable-background="new 0 0 75 75" xml:space="preserve">
<g>
	<path fill="#6699CC" d="M65.485,21.85c-0.045-0.113-0.106-0.219-0.2-0.308l-8.679-8.336c-0.027-0.026-0.063-0.038-0.096-0.059
		c-0.057-0.043-0.112-0.088-0.18-0.115c-0.068-0.028-0.138-0.033-0.21-0.042c-0.036-0.005-0.068-0.021-0.106-0.021h-0.017h-0.002
		h-2.861c-0.022-0.031-0.037-0.068-0.066-0.096l-5.014-4.817c-0.03-0.029-0.069-0.041-0.103-0.065
		c-0.056-0.04-0.106-0.082-0.171-0.108c-0.069-0.028-0.142-0.034-0.214-0.043c-0.035-0.004-0.066-0.021-0.104-0.021h-0.017
		c-0.001,0-0.001,0-0.002,0h-2.758c-0.045-0.116-0.107-0.226-0.202-0.317l-5.566-5.346c-0.027-0.028-0.063-0.039-0.095-0.062
		c-0.059-0.042-0.112-0.086-0.178-0.113c-0.071-0.029-0.146-0.036-0.222-0.045c-0.032-0.004-0.063-0.02-0.097-0.02h-0.016
		c0,0-0.002,0-0.004,0H12.87c-1.328,0-2.409,1.081-2.409,2.409v52.485c0,1.327,1.081,2.407,2.409,2.407h3.292
		c0.135,0,0.258-0.037,0.373-0.095v4.823c0,1.349,1.097,2.445,2.444,2.445h3.913v4.391c0,1.374,1.118,2.492,2.493,2.492h37.689
		c1.374,0,2.492-1.117,2.492-2.492V22.204C65.566,22.077,65.532,21.959,65.485,21.85z M56.867,15.82l5.768,5.541l-5.768,0.022V15.82
		z M48.315,10.67l2.393,2.298h-2.393V10.67z M39.182,4.769l3.175,3.049h-3.175V4.769z M16.535,10.262v47.348
		c-0.114-0.058-0.238-0.096-0.373-0.096H12.87c-0.389,0-0.705-0.315-0.705-0.703V4.326c0-0.388,0.316-0.705,0.705-0.705h24.607
		v4.197H18.979C17.631,7.818,16.535,8.914,16.535,10.262z M18.979,64.688c-0.408,0-0.74-0.332-0.74-0.741V10.262
		c0-0.407,0.332-0.739,0.74-0.739h27.632v3.446H25.385c-1.375,0-2.493,1.118-2.493,2.493v49.226L18.979,64.688L18.979,64.688z
		 M63.862,70.782c0,0.435-0.354,0.788-0.788,0.788H25.385c-0.435,0-0.789-0.353-0.789-0.788V15.461c0-0.435,0.354-0.789,0.789-0.789
		h29.777v6.71c0,0.922,0.752,1.673,1.673,1.673h7.027V70.782z"/>
	<path fill="#6699CC" d="M44.111,31.051c-5.154,0-9.888,2.696-12.542,7.079l-2.011-0.76l0.963,5.869l4.603-3.769l-1.931-0.729
		c2.222-3.477,5.952-5.688,10.066-5.958v0.826c0,0.47,0.382,0.852,0.852,0.852c0.471,0,0.853-0.382,0.853-0.852v-0.811
		c6.473,0.423,11.653,5.604,12.077,12.078H56.3c-0.47,0-0.852,0.381-0.852,0.852c0,0.47,0.382,0.853,0.852,0.853h0.741
		c-0.422,6.433-5.542,11.593-11.959,12.071v-0.85c0-0.472-0.382-0.852-0.853-0.852c-0.47,0-0.852,0.38-0.852,0.852v0.868
		c-5.945-0.335-10.939-4.687-12.017-10.604c-0.084-0.464-0.529-0.767-0.992-0.687c-0.463,0.084-0.77,0.528-0.686,0.991
		c1.27,6.975,7.338,12.036,14.428,12.036c0.031,0,0.063-0.006,0.095-0.006c0.009,0,0.016,0.006,0.023,0.006
		c0.015,0,0.024-0.009,0.04-0.009c8.019-0.086,14.519-6.631,14.519-14.67C58.788,37.636,52.204,31.051,44.111,31.051z"/>
	<path fill="#6699CC" d="M43.238,53.289c0,0.471,0.383,0.852,0.853,0.852s0.853-0.381,0.853-0.852v-7.206l4.024-4.023
		c0.331-0.333,0.333-0.872,0-1.204c-0.334-0.334-0.875-0.334-1.206-0.002l-4.272,4.273c-0.079,0.079-0.142,0.173-0.184,0.277
		c-0.044,0.104-0.066,0.215-0.066,0.325l0,0L43.238,53.289L43.238,53.289z"/>
</g>
</svg>
