<?xml version="1.0" encoding="utf-8"?>
<!-- Generator: Adobe Illustrator 16.0.3, SVG Export Plug-In . SVG Version: 6.00 Build 0)  -->
<!DOCTYPE svg PUBLIC "-//W3C//DTD SVG 1.1//EN" "http://www.w3.org/Graphics/SVG/1.1/DTD/svg11.dtd">
<svg version="1.1" id="Layer_1" xmlns="http://www.w3.org/2000/svg" xmlns:xlink="http://www.w3.org/1999/xlink" x="0px" y="0px"
	 width="75px" height="75px" viewBox="0 0 75 75" enable-background="new 0 0 75 75" xml:space="preserve">
<g>
	<path fill="#21A0DF" d="M62.759,12.149c-0.044-0.118-0.108-0.23-0.206-0.323L52.185,1.869c-0.032-0.031-0.073-0.044-0.108-0.069
		c-0.056-0.04-0.107-0.083-0.172-0.109c-0.073-0.03-0.149-0.037-0.227-0.046c-0.034-0.004-0.064-0.02-0.1-0.02h-0.016
		c-0.002,0-0.003,0-0.004,0H14.991c-1.564,0-2.836,1.271-2.836,2.834V70.54c0,1.563,1.272,2.835,2.836,2.835h45.02
		c1.563,0,2.834-1.271,2.834-2.835V12.515C62.845,12.383,62.811,12.261,62.759,12.149z M52.453,4.554l7.379,7.086h-7.274
		c-0.059,0-0.104-0.046-0.104-0.105V4.554z M61.095,70.54c0,0.599-0.486,1.085-1.084,1.085h-45.02c-0.599,0-1.086-0.486-1.086-1.085
		V4.459c0-0.598,0.487-1.084,1.086-1.084h35.712v8.16c0,1.023,0.832,1.855,1.854,1.855h8.537V70.54z"/>
	<path fill="#21A0DF" d="M42.881,38.743l-7.428-4.287c-0.271-0.156-0.604-0.156-0.875,0s-0.438,0.445-0.438,0.758v8.575
		c0,0.313,0.167,0.602,0.438,0.758c0.135,0.078,0.287,0.117,0.438,0.117s0.302-0.039,0.438-0.117l7.428-4.288
		c0.271-0.156,0.438-0.445,0.438-0.758S43.151,38.899,42.881,38.743z M35.891,42.273v-5.544l4.803,2.771L35.891,42.273z"/>
	<path fill="#21A0DF" d="M49.162,29.106l1.075-3.023c0.121-0.339,0.021-0.718-0.25-0.954c-0.826-0.717-1.728-1.371-2.68-1.944
		c-0.309-0.185-0.698-0.163-0.985,0.056l-2.541,1.957c-0.959-0.421-1.949-0.744-2.956-0.963l-0.906-3.082
		c-0.103-0.346-0.405-0.594-0.765-0.625c-0.894-0.077-2.411-0.077-3.307,0c-0.359,0.031-0.662,0.279-0.764,0.625l-0.908,3.082
		c-1.006,0.218-1.997,0.541-2.955,0.963l-2.542-1.957c-0.286-0.22-0.676-0.243-0.984-0.057c-0.956,0.574-1.858,1.229-2.682,1.945
		c-0.271,0.236-0.371,0.614-0.25,0.954l1.076,3.023c-0.704,0.787-1.32,1.629-1.84,2.514l-3.216-0.088
		c-0.353-0.009-0.688,0.202-0.829,0.532c-0.405,0.953-0.744,2.011-1.006,3.147c-0.081,0.351,0.061,0.715,0.358,0.919l2.651,1.815
		c-0.061,0.56-0.089,1.063-0.089,1.555s0.029,0.995,0.089,1.556l-2.651,1.815c-0.297,0.203-0.439,0.567-0.358,0.918
		c0.26,1.13,0.599,2.188,1.005,3.147c0.141,0.331,0.453,0.525,0.83,0.533l3.216-0.089c0.519,0.885,1.135,1.728,1.84,2.515
		l-1.075,3.024c-0.121,0.339-0.021,0.717,0.25,0.953c0.815,0.71,1.717,1.364,2.68,1.945c0.309,0.186,0.701,0.164,0.986-0.056
		l2.543-1.959c0.957,0.421,1.946,0.744,2.954,0.963l0.908,3.083c0.102,0.346,0.405,0.594,0.764,0.625
		c0.444,0.038,1.034,0.082,1.653,0.082s1.209-0.044,1.654-0.082c0.359-0.031,0.662-0.279,0.765-0.625l0.906-3.083
		c1.007-0.219,1.996-0.541,2.953-0.963l2.545,1.958c0.286,0.22,0.678,0.241,0.985,0.056c0.965-0.581,1.867-1.236,2.682-1.947
		c0.271-0.236,0.37-0.614,0.249-0.952l-1.075-3.023c0.703-0.786,1.319-1.628,1.839-2.514l3.216,0.089
		c0.409-0.011,0.689-0.202,0.83-0.533c0.407-0.961,0.746-2.021,1.005-3.147c0.081-0.351-0.062-0.715-0.358-0.918l-2.651-1.817
		c0.061-0.556,0.09-1.067,0.09-1.554c0-0.493-0.028-0.997-0.089-1.555l2.65-1.815c0.297-0.204,0.439-0.568,0.358-0.918
		c-0.26-1.132-0.599-2.191-1.007-3.148c-0.138-0.323-0.454-0.532-0.805-0.532c-0.008,0-0.016,0-0.024,0l-3.217,0.088
		C50.479,30.732,49.863,29.89,49.162,29.106z M54.207,35.029l-2.59,1.773c-0.273,0.187-0.417,0.512-0.373,0.84
		c0.096,0.702,0.14,1.292,0.14,1.859c0,0.567-0.044,1.158-0.14,1.857c-0.044,0.328,0.1,0.653,0.373,0.84l2.59,1.775
		c-0.159,0.604-0.343,1.184-0.549,1.73l-3.134-0.087c-0.367-0.006-0.638,0.169-0.795,0.46c-0.58,1.076-1.32,2.089-2.2,3.009
		c-0.229,0.239-0.303,0.586-0.191,0.897l1.049,2.949c-0.466,0.378-0.961,0.736-1.479,1.072l-2.482-1.909
		c-0.26-0.201-0.613-0.238-0.913-0.095c-1.132,0.545-2.321,0.933-3.533,1.15c-0.326,0.059-0.591,0.297-0.685,0.614l-0.885,3.011
		c-0.57,0.037-1.249,0.037-1.819,0l-0.887-3.011c-0.094-0.317-0.358-0.556-0.685-0.614c-1.212-0.218-2.401-0.605-3.534-1.15
		c-0.298-0.145-0.651-0.107-0.913,0.095l-2.48,1.91c-0.517-0.336-1.011-0.694-1.479-1.071l1.049-2.951
		c0.111-0.312,0.037-0.659-0.192-0.897c-0.881-0.921-1.622-1.934-2.2-3.008c-0.157-0.291-0.454-0.465-0.795-0.461l-3.134,0.087
		c-0.207-0.546-0.39-1.125-0.549-1.73l2.589-1.773c0.273-0.187,0.417-0.511,0.373-0.839c-0.095-0.706-0.14-1.298-0.14-1.86
		c0-0.563,0.044-1.154,0.14-1.859c0.044-0.328-0.1-0.652-0.373-0.839l-2.589-1.773c0.16-0.608,0.343-1.188,0.549-1.731l3.135,0.086
		c0.328,0.026,0.637-0.168,0.794-0.459c0.58-1.075,1.321-2.087,2.201-3.008c0.229-0.239,0.303-0.586,0.192-0.898l-1.049-2.949
		c0.469-0.379,0.963-0.738,1.478-1.07l2.48,1.909c0.262,0.202,0.616,0.238,0.913,0.095c1.135-0.547,2.325-0.934,3.535-1.151
		c0.326-0.059,0.591-0.296,0.685-0.614l0.887-3.01c0.573-0.036,1.246-0.036,1.819,0l0.885,3.01c0.094,0.318,0.359,0.556,0.686,0.614
		c1.21,0.217,2.4,0.604,3.535,1.151c0.298,0.143,0.65,0.106,0.914-0.095l2.479-1.909c0.513,0.333,1.007,0.691,1.477,1.071
		l-1.049,2.949c-0.111,0.312-0.037,0.66,0.192,0.898c0.876,0.916,1.616,1.928,2.2,3.008c0.152,0.284,0.448,0.459,0.77,0.459
		c0.008,0,0.016,0,0.024,0l3.135-0.086C53.864,33.843,54.048,34.422,54.207,35.029z"/>
	<path fill="#21A0DF" d="M37.5,29.323c-5.612,0-10.178,4.565-10.178,10.176c0,5.613,4.566,10.18,10.178,10.18
		c5.612,0,10.178-4.566,10.178-10.18C47.678,33.888,43.112,29.323,37.5,29.323z M37.5,47.929c-4.647,0-8.428-3.781-8.428-8.43
		c0-4.646,3.781-8.426,8.428-8.426c4.647,0,8.428,3.78,8.428,8.426C45.928,44.147,42.147,47.929,37.5,47.929z"/>
</g>
</svg>
