<?xml version="1.0" encoding="utf-8"?>
<!-- Generator: Adobe Illustrator 16.0.3, SVG Export Plug-In . SVG Version: 6.00 Build 0)  -->
<!DOCTYPE svg PUBLIC "-//W3C//DTD SVG 1.1//EN" "http://www.w3.org/Graphics/SVG/1.1/DTD/svg11.dtd">
<svg version="1.1" id="Layer_1" xmlns="http://www.w3.org/2000/svg" xmlns:xlink="http://www.w3.org/1999/xlink" x="0px" y="0px"
	 width="75px" height="75px" viewBox="0 0 75 75" enable-background="new 0 0 75 75" xml:space="preserve">
<g>
	<path fill="#21A0DF" d="M63.657,12.237c-0.045-0.116-0.109-0.227-0.205-0.318L52.954,1.835c-0.028-0.027-0.065-0.039-0.097-0.062
		c-0.059-0.043-0.115-0.089-0.185-0.117c-0.069-0.027-0.142-0.034-0.215-0.043c-0.037-0.005-0.071-0.022-0.11-0.022H52.33h-0.001
		H14.115c-1.577,0-2.86,1.283-2.86,2.859v66.923c0,1.577,1.283,2.859,2.86,2.859h46.772c1.576,0,2.859-1.282,2.859-2.859V12.608
		C63.746,12.474,63.711,12.351,63.657,12.237z M53.223,4.52l7.51,7.213h-7.395c-0.064,0-0.115-0.052-0.115-0.118V4.52z
		 M61.996,71.373c0,0.611-0.498,1.109-1.109,1.109H14.115c-0.612,0-1.11-0.498-1.11-1.109V4.45c0-0.612,0.498-1.109,1.11-1.109
		h37.358v8.274c0,1.03,0.837,1.868,1.865,1.868h8.658V71.373z"/>
	<path fill="#21A0DF" d="M49.293,51.926c0-0.656-0.249-1.54-1.265-2.42c-1.397-2.766-2.448-4.28-4.283-6.746
		c-0.863-1.161-1.559-2.036-2.138-2.743c0.578-0.705,1.271-1.579,2.138-2.743c2.253-3.026,3.376-4.701,5.441-9.146
		c0.107-0.233,0.102-0.495,0.001-0.721c0-0.006,0.002-0.012,0.002-0.018c0-3.359-10.492-3.457-11.688-3.457
		s-11.688,0.097-11.688,3.457c0,0.004,0.001,0.008,0.001,0.012c-0.102,0.228-0.108,0.491,0,0.726
		c2.063,4.445,3.186,6.12,5.438,9.146c0.86,1.156,1.556,2.032,2.139,2.743c-0.581,0.709-1.276,1.585-2.139,2.743
		c-1.834,2.467-2.885,3.981-4.283,6.75c-1.01,0.876-1.263,1.759-1.263,2.416c0,0.104,0.023,0.203,0.035,0.305
		c-0.004,0.094,0.007,0.186,0.032,0.275c0.659,2.971,6.351,4.567,11.728,4.567c5.373,0,11.061-1.594,11.726-4.562
		c0.027-0.096,0.04-0.193,0.034-0.294C49.271,52.12,49.293,52.026,49.293,51.926z M42.02,49.692
		c-1.186,1.186-2.668,1.355-4.52,1.355c-1.851,0-3.277-0.114-4.519-1.355c0.86-1.852,1.31-2.508,2.218-3.729
		c0.909-1.223,1.374-1.697,2.3-2.828c0.924,1.131,1.391,1.605,2.299,2.828C40.708,47.185,41.158,47.841,42.02,49.692z
		 M31.828,50.846c1.693,1.692,3.648,1.833,5.672,1.833c1.857,0,3.981-0.141,5.672-1.833c0.414-0.414,0.55-1.008,0.406-1.561
		c0.896,0.25,1.695,0.551,2.336,0.895c0.275,0.148,0.514,0.302,0.724,0.458c0.221,0.443,0.45,0.915,0.694,1.434
		c-2.445,2.158-5.498,2.596-9.832,2.596c-4.032,0-7.141-0.193-9.833-2.594c0.245-0.521,0.475-0.993,0.696-1.438
		c0.221-0.164,0.476-0.325,0.769-0.479c0,0,0-0.001,0.001-0.001s0,0,0,0c0.629-0.333,1.412-0.624,2.289-0.869
		C31.279,49.838,31.415,50.432,31.828,50.846z M47.261,27.271c-3.491,1.399-5.673,1.788-9.761,1.788
		c-4.087,0-6.268-0.388-9.76-1.787c0.875-0.654,4.348-1.589,9.761-1.589C42.912,25.682,46.385,26.616,47.261,27.271z M32.656,43.805
		c1.08-1.449,1.891-2.445,2.542-3.229c0.27-0.324,0.27-0.795,0-1.119c-0.653-0.785-1.466-1.783-2.542-3.229
		c-1.756-2.359-2.771-3.828-4.106-6.462c3.196,1.033,8.151,1.078,8.951,1.078s5.751-0.045,8.947-1.077
		c-1.335,2.635-2.351,4.103-4.107,6.462c-1.085,1.458-1.894,2.451-2.541,3.228c-0.27,0.324-0.27,0.795,0,1.119
		c0.649,0.78,1.46,1.773,2.541,3.229c1.178,1.582,2.021,2.767,2.851,4.161c-0.749-0.271-1.573-0.506-2.465-0.688l0,0l-0.004-0.001
		c-0.002,0-0.003-0.001-0.005-0.001c0,0,0,0-0.001,0l-0.097-0.021c-0.459-0.821-0.887-1.426-1.511-2.265
		c-0.637-0.855-1.063-1.357-1.557-1.942c-0.235-0.278-0.488-0.576-0.791-0.946c-0.619-0.757-1.905-0.757-2.525,0
		c-0.303,0.371-0.557,0.672-0.792,0.949c-0.493,0.584-0.918,1.086-1.553,1.939c-0.625,0.841-1.053,1.444-1.51,2.265
		c-0.935,0.188-1.797,0.431-2.575,0.713C30.635,46.572,31.478,45.388,32.656,43.805z"/>
</g>
</svg>
