<?xml version="1.0" encoding="utf-8"?>
<!-- Generator: Adobe Illustrator 16.0.3, SVG Export Plug-In . SVG Version: 6.00 Build 0)  -->
<!DOCTYPE svg PUBLIC "-//W3C//DTD SVG 1.1//EN" "http://www.w3.org/Graphics/SVG/1.1/DTD/svg11.dtd">
<svg version="1.1" id="Layer_1" xmlns="http://www.w3.org/2000/svg" xmlns:xlink="http://www.w3.org/1999/xlink" x="0px" y="0px"
	 width="75px" height="75px" viewBox="0 0 75 75" enable-background="new 0 0 75 75" xml:space="preserve">
<g>
	<polygon fill="#21A0DF" points="33.336,18.889 41.489,22.914 48.465,16.822 49.611,18.135 51.304,13.181 46.167,14.191 
		47.313,15.504 41.218,20.828 33.189,16.865 22.199,24.441 23.192,25.882 	"/>
	<path fill="#21A0DF" d="M65.141,12.127c-0.044-0.115-0.109-0.224-0.204-0.315L54.356,1.649c-0.029-0.028-0.066-0.04-0.099-0.063
		c-0.059-0.043-0.114-0.088-0.182-0.116c-0.07-0.028-0.144-0.035-0.218-0.044c-0.037-0.005-0.07-0.022-0.108-0.022h-0.017
		c-0.001,0-0.001,0-0.002,0H12.644c-1.585,0-2.875,1.29-2.875,2.875v67.44c0,1.585,1.29,2.875,2.875,2.875h49.713
		c1.585,0,2.875-1.29,2.875-2.875V12.5C65.231,12.365,65.195,12.241,65.141,12.127z M54.625,4.334l7.591,7.291H54.75
		c-0.069,0-0.125-0.056-0.125-0.125V4.334z M63.481,71.721c0,0.62-0.505,1.125-1.125,1.125H12.644c-0.62,0-1.125-0.505-1.125-1.125
		V4.28c0-0.62,0.505-1.125,1.125-1.125h40.231V11.5c0,1.034,0.841,1.875,1.875,1.875h8.731V71.721z"/>
	<path fill="#21A0DF" d="M16.935,28.115c-0.483,0-0.875,0.392-0.875,0.875v29.177c0,0.483,0.392,0.875,0.875,0.875h40.749
		c0.067,0,0.127-0.024,0.19-0.038c0.063,0.014,0.123,0.038,0.19,0.038c0.483,0,0.875-0.392,0.875-0.875V28.99
		c0-0.483-0.392-0.875-0.875-0.875c-0.067,0-0.127,0.024-0.19,0.039c-0.063-0.015-0.123-0.039-0.19-0.039H16.935z M57.189,37.841
		H41.814v-3.112h15.375V37.841z M17.81,34.729h5.128v3.112H17.81V34.729z M17.81,39.591h5.128v3.112H17.81V39.591z M40.064,47.566
		H24.688v-3.113h15.376V47.566z M41.814,44.453h15.375v3.113H41.814V44.453z M24.688,42.703v-3.112h15.376v3.112H24.688z
		 M22.938,44.453v3.113H17.81v-3.113H22.938z M22.938,49.316v3.112H17.81v-3.112H22.938z M24.688,49.316h15.376v3.112H24.688V49.316
		z M41.814,49.316h15.375v3.112H41.814V49.316z M57.189,42.703H41.814v-3.112h15.375V42.703z M40.064,37.841H24.688v-3.112h15.376
		V37.841z M24.688,32.979v-3.114h15.376v3.114H24.688z M22.938,32.979H17.81v-3.114h5.128V32.979z M17.81,54.179h5.128v3.113H17.81
		V54.179z M24.688,54.179h15.376v3.113H24.688V54.179z M41.814,54.179h15.375v3.113H41.814V54.179z M57.189,32.979H41.814v-3.114
		h15.375V32.979z"/>
	<path fill="#21A0DF" d="M27.64,37.005h9.66c0.414,0,0.75-0.336,0.75-0.75s-0.336-0.75-0.75-0.75h-9.66
		c-0.414,0-0.75,0.336-0.75,0.75S27.226,37.005,27.64,37.005z"/>
	<path fill="#21A0DF" d="M44.779,37.005h9.66c0.414,0,0.75-0.336,0.75-0.75s-0.336-0.75-0.75-0.75h-9.66
		c-0.414,0-0.75,0.336-0.75,0.75S44.365,37.005,44.779,37.005z"/>
</g>
</svg>
