<?xml version="1.0" encoding="utf-8"?>
<!-- Generator: Adobe Illustrator 16.0.3, SVG Export Plug-In . SVG Version: 6.00 Build 0)  -->
<!DOCTYPE svg PUBLIC "-//W3C//DTD SVG 1.1//EN" "http://www.w3.org/Graphics/SVG/1.1/DTD/svg11.dtd">
<svg version="1.1" id="Layer_1" xmlns="http://www.w3.org/2000/svg" xmlns:xlink="http://www.w3.org/1999/xlink" x="0px" y="0px"
	 width="75px" height="75px" viewBox="0 0 75 75" enable-background="new 0 0 75 75" xml:space="preserve">
<g>
	<polygon fill="#6699CC" points="33.496,19.622 41.335,23.493 48.044,17.635 49.146,18.897 50.775,14.133 45.835,15.104 
		46.937,16.367 41.075,21.487 33.354,17.676 22.786,24.961 23.741,26.347 	"/>
	<path fill="#6699CC" d="M64.08,13.12c-0.041-0.11-0.104-0.216-0.195-0.303L53.709,3.043c-0.027-0.027-0.063-0.039-0.095-0.061
		c-0.057-0.042-0.11-0.084-0.175-0.112c-0.067-0.027-0.138-0.033-0.209-0.042c-0.036-0.004-0.068-0.021-0.104-0.021h-0.017
		c-0.002,0-0.002,0-0.002,0h-39.51c-1.524,0-2.765,1.241-2.765,2.765v64.853c0,1.525,1.24,2.765,2.765,2.765h47.807
		c1.522,0,2.765-1.239,2.765-2.765V13.478C64.167,13.349,64.133,13.229,64.08,13.12z M53.968,5.625l7.3,7.011h-7.18
		c-0.065,0-0.12-0.054-0.12-0.12V5.625z M62.483,70.427c0,0.597-0.484,1.082-1.081,1.082H13.598c-0.597,0-1.082-0.485-1.082-1.082
		V5.574c0-0.596,0.485-1.082,1.082-1.082h38.688v8.025c0,0.995,0.809,1.803,1.803,1.803h8.396V70.427z"/>
	<path fill="#6699CC" d="M17.724,28.494c-0.464,0-0.842,0.377-0.842,0.842v28.058c0,0.465,0.377,0.841,0.842,0.841h39.185
		c0.065,0,0.122-0.023,0.184-0.036c0.061,0.013,0.118,0.036,0.183,0.036c0.464,0,0.842-0.376,0.842-0.841V29.336
		c0-0.465-0.378-0.842-0.842-0.842c-0.064,0-0.122,0.023-0.183,0.037c-0.062-0.014-0.118-0.037-0.184-0.037H17.724z M56.435,37.847
		H41.649v-2.992h14.785V37.847z M18.565,34.854h4.931v2.992h-4.931V34.854z M18.565,39.529h4.931v2.993h-4.931V39.529z
		 M39.966,47.199H25.18v-2.994h14.786V47.199z M41.649,44.205h14.785v2.994H41.649V44.205z M25.18,42.522v-2.993h14.786v2.993H25.18
		z M23.497,44.205v2.994h-4.931v-2.994H23.497z M23.497,48.882v2.992h-4.931v-2.992H23.497z M25.18,48.882h14.786v2.992H25.18
		V48.882z M41.649,48.882h14.785v2.992H41.649V48.882z M56.435,42.522H41.649v-2.993h14.785V42.522z M39.966,37.847H25.18v-2.992
		h14.786V37.847z M25.18,33.171v-2.994h14.786v2.994H25.18z M23.497,33.171h-4.931v-2.994h4.931V33.171z M18.565,53.559h4.931v2.993
		h-4.931V53.559z M25.18,53.559h14.786v2.993H25.18V53.559z M41.649,53.559h14.785v2.993H41.649V53.559z M56.435,33.171H41.649
		v-2.994h14.785V33.171z"/>
	<path fill="#6699CC" d="M28.019,37.043h9.289c0.398,0,0.721-0.323,0.721-0.721s-0.323-0.721-0.721-0.721h-9.289
		c-0.398,0-0.721,0.323-0.721,0.721S27.62,37.043,28.019,37.043z"/>
	<path fill="#6699CC" d="M44.5,37.043h9.29c0.397,0,0.721-0.323,0.721-0.721s-0.323-0.721-0.721-0.721H44.5
		c-0.398,0-0.721,0.323-0.721,0.721S44.102,37.043,44.5,37.043z"/>
</g>
</svg>
