<?xml version="1.0" encoding="utf-8"?>
<!-- Generator: Adobe Illustrator 16.0.3, SVG Export Plug-In . SVG Version: 6.00 Build 0)  -->
<!DOCTYPE svg PUBLIC "-//W3C//DTD SVG 1.1//EN" "http://www.w3.org/Graphics/SVG/1.1/DTD/svg11.dtd">
<svg version="1.1" id="Layer_1" xmlns="http://www.w3.org/2000/svg" xmlns:xlink="http://www.w3.org/1999/xlink" x="0px" y="0px"
	 width="75px" height="75px" viewBox="0 0 75 75" enable-background="new 0 0 75 75" xml:space="preserve">
<rect x="17.035" y="23.378" fill="none" width="38.929" height="20.124"/>
<text transform="matrix(1 0 0 1 18.4883 39.3379)" fill="#21A0DF" stroke="#21A0DF" stroke-width="0.5" stroke-linecap="round" stroke-linejoin="round" stroke-miterlimit="10" font-family="'OpenSans'" font-size="21">403</text>
<g>
	<path fill="#21A0DF" d="M17.361,6.75c0.483,0,0.875-0.392,0.875-0.875S17.845,5,17.361,5h-0.05c-0.483,0-0.85,0.392-0.85,0.875
		S16.878,6.75,17.361,6.75z"/>
	<path fill="#21A0DF" d="M20.898,6.75c0.483,0,0.875-0.392,0.875-0.875S21.382,5,20.898,5h-0.086c-0.483,0-0.832,0.392-0.832,0.875
		S20.415,6.75,20.898,6.75z"/>
	<path fill="#21A0DF" d="M24.398,6.75c0.483,0,0.875-0.392,0.875-0.875S24.882,5,24.398,5h-0.05c-0.483,0-0.85,0.392-0.85,0.875
		S23.915,6.75,24.398,6.75z"/>
	<path fill="#21A0DF" d="M37.626,59.269c0,5.622,4.574,10.196,10.196,10.196c5.623,0,10.197-4.574,10.197-10.196
		c0-5.623-4.574-10.197-10.197-10.197C42.2,49.071,37.626,53.646,37.626,59.269z M56.27,59.269c0,4.657-3.789,8.446-8.447,8.446
		c-4.657,0-8.446-3.789-8.446-8.446c0-4.658,3.789-8.447,8.446-8.447C52.48,50.821,56.27,54.61,56.27,59.269z"/>
	<path fill="#21A0DF" d="M44.071,54.277c-0.342-0.342-0.896-0.342-1.238,0c-0.341,0.342-0.341,0.896,0,1.238l3.752,3.752
		l-3.752,3.752c-0.341,0.342-0.341,0.896,0,1.238c0.171,0.171,0.396,0.256,0.619,0.256s0.448-0.085,0.619-0.256l3.752-3.752
		l3.752,3.752c0.171,0.171,0.396,0.256,0.619,0.256s0.448-0.085,0.619-0.256c0.341-0.342,0.341-0.896,0-1.238l-3.752-3.752
		l3.752-3.752c0.341-0.342,0.341-0.896,0-1.238c-0.342-0.342-0.896-0.342-1.238,0l-3.752,3.752L44.071,54.277z"/>
	<path fill="#21A0DF" d="M62.769,13.878c-0.04-0.079-0.082-0.158-0.148-0.225L50.535,1.569c-0.004-0.003-0.009-0.004-0.012-0.008
		c-0.079-0.076-0.17-0.138-0.272-0.181c-0.107-0.044-0.221-0.067-0.335-0.067H14.812c-1.585,0-2.875,1.29-2.875,2.875v66.625
		c0,1.585,1.29,2.875,2.875,2.875h45.377c1.585,0,2.875-1.29,2.875-2.875v-56.29C63.063,14.265,62.947,14.039,62.769,13.878z
		 M50.791,4.3l9.348,9.348h-8.223c-0.62,0-1.125-0.505-1.125-1.125V4.3z M14.812,3.063h34.229v6.126H13.687V4.188
		C13.687,3.567,14.191,3.063,14.812,3.063z M61.313,70.813c0,0.62-0.505,1.125-1.125,1.125H14.812c-0.62,0-1.125-0.505-1.125-1.125
		V10.938h35.354v1.584c0,1.585,1.29,2.875,2.875,2.875h9.397V70.813z"/>
</g>
</svg>
