<?xml version="1.0" encoding="utf-8"?>
<!-- Generator: Adobe Illustrator 16.0.3, SVG Export Plug-In . SVG Version: 6.00 Build 0)  -->
<!DOCTYPE svg PUBLIC "-//W3C//DTD SVG 1.1//EN" "http://www.w3.org/Graphics/SVG/1.1/DTD/svg11.dtd">
<svg version="1.1" id="Layer_1" xmlns="http://www.w3.org/2000/svg" xmlns:xlink="http://www.w3.org/1999/xlink" x="0px" y="0px"
	 width="75px" height="75px" viewBox="0 0 75 75" enable-background="new 0 0 75 75" xml:space="preserve">
<g>
	<path fill="#21A0DF" d="M47.673,48.495c-5.734,0-10.4,4.666-10.4,10.401c0,5.734,4.666,10.399,10.4,10.399
		c5.735,0,10.401-4.665,10.401-10.399C58.074,53.161,53.408,48.495,47.673,48.495z M47.673,67.546c-4.77,0-8.65-3.88-8.65-8.649
		c0-4.771,3.881-8.651,8.65-8.651c4.771,0,8.651,3.881,8.651,8.651C56.324,63.666,52.443,67.546,47.673,67.546z"/>
	<path fill="#21A0DF" d="M52.758,53.81c-0.34-0.342-0.896-0.34-1.237,0l-3.847,3.848l-3.847-3.848c-0.342-0.342-0.897-0.342-1.237,0
		c-0.342,0.342-0.343,0.896-0.001,1.237l3.848,3.849l-3.848,3.849c-0.342,0.341-0.341,0.896,0.001,1.237
		c0.17,0.171,0.395,0.256,0.618,0.256s0.448-0.086,0.619-0.256l3.847-3.848l3.847,3.848c0.171,0.171,0.396,0.256,0.619,0.256
		s0.448-0.085,0.618-0.256c0.342-0.342,0.343-0.896,0.001-1.237l-3.848-3.849l3.848-3.849C53.101,54.706,53.1,54.151,52.758,53.81z"
		/>
	<path fill="#21A0DF" d="M64.165,17.493c-0.044-0.117-0.108-0.228-0.205-0.32l-9.576-9.197c-0.03-0.029-0.068-0.041-0.102-0.064
		c-0.058-0.042-0.111-0.087-0.179-0.114c-0.076-0.031-0.156-0.04-0.236-0.048c-0.031-0.003-0.058-0.018-0.09-0.018h-0.014
		c-0.003,0-0.005,0-0.007,0h-3.189c-0.03-0.041-0.048-0.088-0.086-0.124l-5.532-5.314c-0.03-0.029-0.067-0.04-0.101-0.064
		c-0.058-0.042-0.112-0.087-0.18-0.114c-0.072-0.03-0.149-0.037-0.227-0.046c-0.034-0.004-0.064-0.02-0.1-0.02h-0.016
		c-0.001,0-0.002,0-0.004,0H12.917c-1.451,0-2.632,1.18-2.632,2.631v59.231c0,1.45,1.181,2.631,2.632,2.631h4.382v4.909
		c0,1.48,1.205,2.685,2.685,2.685h41.582c1.479,0,2.684-1.204,2.684-2.685V17.857C64.25,17.726,64.217,17.604,64.165,17.493z
		 M54.652,10.661l6.574,6.314l-6.574-0.023V10.661z M45.218,4.979l2.866,2.753h-2.866V4.979z M12.917,64.793
		c-0.486,0-0.882-0.396-0.882-0.881V4.681c0-0.486,0.396-0.881,0.882-0.881h30.551v3.932H19.984c-1.48,0-2.685,1.205-2.685,2.686
		v54.375H12.917z M62.5,71.452c0,0.516-0.419,0.935-0.934,0.935H19.984c-0.516,0-0.935-0.419-0.935-0.935V10.417
		c0-0.516,0.419-0.936,0.935-0.936h32.918v7.469c0,0.982,0.798,1.781,1.779,1.781H62.5V71.452z"/>
	<path fill="#21A0DF" d="M28.199,23.273c-0.715,0.622-1.073,1.868-1.073,3.739v3.275c0,1.27-0.229,2.15-0.686,2.641
		s-1.287,0.736-2.488,0.736h-0.774v1.333h0.774c1.202,0,2.031,0.246,2.488,0.736s0.686,1.371,0.686,2.641v3.275
		c0,1.87,0.357,3.119,1.073,3.745s2.126,0.939,4.234,0.939h0.787v-1.333h-0.863c-1.193,0-1.972-0.187-2.336-0.559
		s-0.546-1.155-0.546-2.349V38.45c0-1.329-0.208-2.277-0.622-2.844s-1.181-0.995-2.298-1.282c1.1-0.254,1.862-0.668,2.285-1.244
		s0.635-1.532,0.635-2.869v-3.644c0-1.193,0.182-1.976,0.546-2.349s1.143-0.559,2.336-0.559h0.863v-1.32h-0.787
		C30.326,22.34,28.915,22.651,28.199,23.273z"/>
	<path fill="#21A0DF" d="M38.425,43.136c0.09,0,0.181-0.024,0.262-0.074c1.3-0.802,2.29-1.767,2.941-2.869
		c0.653-1.101,1.021-2.432,1.092-3.957c0.007-0.136-0.043-0.27-0.138-0.369c-0.094-0.099-0.225-0.155-0.361-0.155h-2.501
		c-0.276,0-0.5,0.224-0.5,0.5v0.47c0,1.045-0.172,1.941-0.511,2.662c-0.335,0.712-0.873,1.342-1.596,1.873
		c-0.118,0.087-0.191,0.22-0.203,0.365s0.042,0.288,0.145,0.392l1.016,1.016C38.168,43.086,38.296,43.136,38.425,43.136z
		 M39.614,39.77c0.399-0.848,0.603-1.876,0.606-3.058h1.463c-0.113,1.14-0.421,2.138-0.915,2.971
		c-0.513,0.868-1.277,1.646-2.274,2.314l-0.336-0.335C38.794,41.109,39.282,40.475,39.614,39.77z"/>
	<path fill="#21A0DF" d="M40.914,31.685c0.609,0,1.132-0.214,1.553-0.635c0.422-0.421,0.636-0.944,0.636-1.554
		c0-0.6-0.213-1.119-0.633-1.544c-0.842-0.853-2.264-0.854-3.109-0.009c-0.421,0.422-0.635,0.944-0.635,1.553
		s0.214,1.131,0.635,1.554C39.782,31.471,40.306,31.685,40.914,31.685z M40.067,28.65c0.233-0.234,0.503-0.343,0.847-0.343
		c0.338,0,0.613,0.113,0.844,0.347c0.231,0.235,0.345,0.51,0.345,0.842c0,0.344-0.108,0.612-0.343,0.846
		c-0.464,0.464-1.229,0.464-1.692,0c-0.229-0.23-0.342-0.507-0.342-0.846S39.838,28.88,40.067,28.65z"/>
	<path fill="#21A0DF" d="M54.562,27.012c0-1.871-0.354-3.117-1.061-3.739c-0.706-0.622-2.113-0.933-4.221-0.933h-0.8v1.32h0.889
		c1.185,0,1.957,0.184,2.316,0.552c0.36,0.368,0.54,1.153,0.54,2.355v3.644c0,1.337,0.209,2.293,0.628,2.869s1.179,0.99,2.279,1.244
		c-1.109,0.288-1.871,0.715-2.285,1.282c-0.415,0.567-0.622,1.515-0.622,2.844v3.644c0,1.202-0.18,1.986-0.54,2.355
		c-0.359,0.367-1.132,0.552-2.316,0.552H48.48v1.333h0.8c2.107,0,3.515-0.313,4.221-0.939c0.707-0.626,1.061-1.875,1.061-3.745
		v-3.275c0-1.27,0.229-2.15,0.686-2.641s1.286-0.736,2.488-0.736h0.787v-1.333h-0.787c-1.202,0-2.031-0.246-2.488-0.736
		s-0.686-1.371-0.686-2.641V27.012z"/>
</g>
</svg>
