<?xml version="1.0" encoding="utf-8"?>
<!-- Generator: Adobe Illustrator 16.0.3, SVG Export Plug-In . SVG Version: 6.00 Build 0)  -->
<!DOCTYPE svg PUBLIC "-//W3C//DTD SVG 1.1//EN" "http://www.w3.org/Graphics/SVG/1.1/DTD/svg11.dtd">
<svg version="1.1" id="Layer_1" xmlns="http://www.w3.org/2000/svg" xmlns:xlink="http://www.w3.org/1999/xlink" x="0px" y="0px"
	 width="75px" height="75px" viewBox="0 0 75 75" enable-background="new 0 0 75 75" xml:space="preserve">
<g>
	<path fill="#6699CC" d="M47.423,47.475c-6.108,0-11.078,4.971-11.078,11.08c0,6.107,4.969,11.077,11.078,11.077
		c6.109,0,11.079-4.97,11.079-11.077C58.502,52.443,53.532,47.475,47.423,47.475z M47.423,67.882c-5.144,0-9.327-4.185-9.327-9.327
		c0-5.146,4.184-9.33,9.327-9.33c5.146,0,9.329,4.186,9.329,9.33C56.752,63.697,52.566,67.882,47.423,67.882z"/>
	<path fill="#6699CC" d="M52.827,53.148c-0.343-0.342-0.896-0.342-1.238,0l-4.165,4.166l-4.165-4.166
		c-0.342-0.342-0.896-0.342-1.237,0c-0.342,0.343-0.342,0.896,0,1.238l4.164,4.165l-4.164,4.165c-0.342,0.342-0.342,0.896,0,1.238
		c0.17,0.171,0.396,0.256,0.619,0.256c0.223,0,0.447-0.085,0.618-0.256l4.165-4.165l4.165,4.165
		c0.171,0.171,0.396,0.256,0.619,0.256s0.448-0.085,0.619-0.256c0.341-0.342,0.341-0.896,0-1.238l-4.165-4.165l4.165-4.165
		C53.168,54.046,53.168,53.491,52.827,53.148z"/>
	<path fill="#6699CC" d="M64.166,21.332c-0.045-0.116-0.109-0.225-0.205-0.316l-8.912-8.56c-0.029-0.028-0.066-0.04-0.1-0.063
		c-0.059-0.042-0.113-0.087-0.182-0.115c-0.072-0.029-0.147-0.036-0.225-0.045c-0.035-0.004-0.064-0.021-0.102-0.021h-0.018
		c-0.001,0-0.002,0-0.003,0h-2.938c-0.023-0.032-0.037-0.07-0.067-0.099l-5.149-4.946c-0.031-0.031-0.072-0.044-0.107-0.069
		c-0.057-0.04-0.107-0.083-0.172-0.109c-0.071-0.029-0.146-0.036-0.223-0.045c-0.035-0.004-0.066-0.021-0.104-0.021h-0.018
		c0,0,0,0-0.002,0h-2.832c-0.045-0.119-0.108-0.232-0.207-0.326L36.901,1.12c0,0-0.001,0-0.001-0.001l-0.012-0.012
		c-0.027-0.026-0.061-0.036-0.09-0.057c-0.061-0.046-0.12-0.093-0.191-0.122c-0.064-0.026-0.132-0.03-0.2-0.04
		c-0.042-0.006-0.081-0.025-0.125-0.025H10.139c-1.364,0-2.474,1.11-2.474,2.474V57.23c0,1.362,1.11,2.473,2.474,2.473h3.38
		c0.139,0,0.266-0.039,0.383-0.098v4.953c0,1.385,1.126,2.51,2.51,2.51h4.018v4.509c0,1.411,1.148,2.56,2.56,2.56h38.701
		c1.41,0,2.559-1.147,2.559-2.56V21.695C64.25,21.564,64.217,21.443,64.166,21.332z M55.316,15.14l5.924,5.689l-5.924,0.023V15.14z
		 M46.536,9.852l2.457,2.36h-2.457V9.852z M37.157,3.792l3.26,3.131h-3.26V3.792z M13.902,9.432v48.619
		c-0.117-0.059-0.244-0.098-0.383-0.098h-3.38c-0.399,0-0.724-0.324-0.724-0.723V3.337c0-0.399,0.325-0.724,0.724-0.724h25.268v4.31
		H16.413C15.028,6.923,13.902,8.048,13.902,9.432z M16.413,65.318c-0.419,0-0.76-0.34-0.76-0.76V9.432
		c0-0.418,0.341-0.759,0.76-0.759h28.374v3.539H22.99c-1.411,0-2.56,1.148-2.56,2.56V65.32h-4.017V65.318z M62.5,71.577
		c0,0.446-0.361,0.81-0.809,0.81H22.99c-0.446,0-0.81-0.363-0.81-0.81V14.771c0-0.446,0.363-0.81,0.81-0.81h30.576v6.891
		c0,0.947,0.771,1.718,1.718,1.718H62.5V71.577z"/>
	<path fill="#6699CC" d="M27.498,28.501h26.625c0.482,0,0.875-0.392,0.875-0.875s-0.393-0.875-0.875-0.875H27.498
		c-0.483,0-0.875,0.392-0.875,0.875S27.015,28.501,27.498,28.501z"/>
	<path fill="#6699CC" d="M27.498,36.757h26.625c0.482,0,0.875-0.392,0.875-0.875c0-0.483-0.393-0.875-0.875-0.875H27.498
		c-0.483,0-0.875,0.392-0.875,0.875C26.623,36.365,27.015,36.757,27.498,36.757z"/>
	<path fill="#6699CC" d="M27.498,45.014h26.625c0.482,0,0.875-0.393,0.875-0.875c0-0.484-0.393-0.875-0.875-0.875H27.498
		c-0.483,0-0.875,0.391-0.875,0.875C26.623,44.621,27.015,45.014,27.498,45.014z"/>
	<path fill="#6699CC" d="M32.999,51.52h-5.501c-0.483,0-0.875,0.393-0.875,0.875c0,0.483,0.392,0.875,0.875,0.875h5.501
		c0.483,0,0.875-0.392,0.875-0.875C33.874,51.912,33.482,51.52,32.999,51.52z"/>
	<path fill="#6699CC" d="M31.124,59.775h-3.626c-0.483,0-0.875,0.392-0.875,0.875c0,0.482,0.392,0.875,0.875,0.875h3.626
		c0.483,0,0.875-0.393,0.875-0.875C31.999,60.167,31.607,59.775,31.124,59.775z"/>
</g>
</svg>
