<?xml version="1.0" encoding="utf-8"?>
<!-- Generator: Adobe Illustrator 16.0.3, SVG Export Plug-In . SVG Version: 6.00 Build 0)  -->
<!DOCTYPE svg PUBLIC "-//W3C//DTD SVG 1.1//EN" "http://www.w3.org/Graphics/SVG/1.1/DTD/svg11.dtd">
<svg version="1.1" id="Layer_1" xmlns="http://www.w3.org/2000/svg" xmlns:xlink="http://www.w3.org/1999/xlink" x="0px" y="0px"
	 width="75px" height="75px" viewBox="0 0 75 75" enable-background="new 0 0 75 75" xml:space="preserve">
<g>
	<path fill="#6699CC" d="M30.075,34.094H28.1v-9.829c0-0.138-0.112-0.25-0.25-0.25h-1.805c-0.082,0-0.158,0.04-0.205,0.106
		l-7.116,10.142c-0.03,0.042-0.045,0.092-0.045,0.144v1.486c0,0.138,0.112,0.25,0.25,0.25h7.041v3.195c0,0.138,0.112,0.25,0.25,0.25
		h1.63c0.138,0,0.25-0.112,0.25-0.25v-3.195h1.975c0.138,0,0.25-0.112,0.25-0.25v-1.549C30.325,34.206,30.213,34.094,30.075,34.094z
		 M25.97,29.361v4.732h-4.857l4.413-6.275c0.16-0.241,0.328-0.517,0.5-0.826C25.988,27.85,25.97,28.644,25.97,29.361z"/>
	<path fill="#6699CC" d="M40.443,37.76c0.839-1.313,1.264-3.31,1.264-5.938c0-2.539-0.439-4.513-1.305-5.867
		c-0.891-1.389-2.209-2.094-3.918-2.094c-1.751,0-3.074,0.677-3.933,2.011c-0.836,1.3-1.26,3.301-1.26,5.95
		c0,2.566,0.438,4.548,1.301,5.892c0.886,1.379,2.195,2.079,3.892,2.079C38.248,39.793,39.58,39.109,40.443,37.76z M38.726,36.452
		c-0.467,0.925-1.2,1.375-2.242,1.375c-1.029,0-1.758-0.443-2.229-1.356c-0.492-0.955-0.741-2.519-0.741-4.648
		c0-2.131,0.25-3.691,0.741-4.638c0.47-0.906,1.199-1.347,2.229-1.347c1.042,0,1.776,0.447,2.243,1.365
		c0.489,0.961,0.737,2.515,0.737,4.619C39.464,33.925,39.216,35.483,38.726,36.452z"/>
	<path fill="#6699CC" d="M53.068,27.874c0-1.234-0.438-2.222-1.301-2.936c-0.85-0.702-2.045-1.057-3.553-1.057
		c-0.913,0-1.794,0.145-2.619,0.43c-0.824,0.283-1.564,0.681-2.201,1.183c-0.107,0.084-0.127,0.238-0.046,0.346l0.861,1.148
		c0.078,0.105,0.224,0.131,0.335,0.061c0.723-0.463,1.371-0.785,1.928-0.956c0.556-0.169,1.155-0.255,1.783-0.255
		c0.798,0,1.432,0.191,1.886,0.567c0.446,0.37,0.663,0.871,0.663,1.53c0,0.84-0.303,1.478-0.926,1.949
		c-0.636,0.48-1.521,0.723-2.629,0.723h-1.496c-0.138,0-0.25,0.112-0.25,0.25v1.467c0,0.138,0.112,0.25,0.25,0.25h1.477
		c2.715,0,4.035,0.811,4.035,2.478c0,1.881-1.189,2.796-3.636,2.796c-0.635,0-1.318-0.083-2.031-0.246
		c-0.713-0.162-1.393-0.402-2.021-0.713c-0.077-0.038-0.17-0.034-0.243,0.012s-0.118,0.126-0.118,0.212v1.619
		c0,0.096,0.055,0.184,0.141,0.225c0.639,0.311,1.308,0.529,1.987,0.652c0.669,0.122,1.417,0.184,2.224,0.184
		c1.873,0,3.346-0.405,4.378-1.206c1.051-0.815,1.583-1.991,1.583-3.494c0-1.06-0.316-1.932-0.939-2.592
		c-0.466-0.493-1.12-0.849-1.951-1.062c0.637-0.243,1.16-0.595,1.563-1.051C52.776,29.735,53.068,28.889,53.068,27.874z"/>
	<path fill="#6699CC" d="M17.361,5h-0.05c-0.483,0-0.85,0.392-0.85,0.875s0.417,0.875,0.9,0.875c0.483,0,0.875-0.392,0.875-0.875
		S17.845,5,17.361,5z"/>
	<path fill="#6699CC" d="M20.898,5h-0.086c-0.483,0-0.832,0.392-0.832,0.875s0.435,0.875,0.918,0.875s0.875-0.392,0.875-0.875
		S21.382,5,20.898,5z"/>
	<path fill="#6699CC" d="M24.398,5h-0.05c-0.483,0-0.85,0.392-0.85,0.875s0.417,0.875,0.9,0.875s0.875-0.392,0.875-0.875
		S24.882,5,24.398,5z"/>
	<path fill="#6699CC" d="M37.626,59.27c0,5.621,4.574,10.195,10.196,10.195c5.623,0,10.197-4.574,10.197-10.195
		c0-5.623-4.574-10.197-10.197-10.197C42.2,49.07,37.626,53.646,37.626,59.27z M56.27,59.27c0,4.656-3.789,8.445-8.446,8.445
		s-8.446-3.789-8.446-8.445c0-4.658,3.789-8.447,8.446-8.447C52.48,50.82,56.27,54.609,56.27,59.27z"/>
	<path fill="#6699CC" d="M42.833,64.257c0.171,0.171,0.396,0.257,0.619,0.257c0.223,0,0.448-0.086,0.618-0.257l3.753-3.752
		l3.752,3.752c0.171,0.171,0.396,0.257,0.618,0.257c0.224,0,0.449-0.086,0.619-0.257c0.342-0.342,0.342-0.896,0-1.237l-3.752-3.752
		l3.752-3.752c0.342-0.343,0.342-0.896,0-1.238s-0.896-0.342-1.237,0l-3.752,3.752l-3.753-3.752c-0.342-0.342-0.896-0.342-1.237,0
		c-0.341,0.342-0.341,0.896,0,1.238l3.752,3.752l-3.752,3.752C42.492,63.361,42.492,63.915,42.833,64.257z"/>
	<path fill="#6699CC" d="M62.77,13.878c-0.041-0.079-0.082-0.158-0.148-0.225L50.535,1.569c-0.004-0.003-0.01-0.004-0.012-0.008
		c-0.08-0.076-0.17-0.138-0.272-0.181c-0.106-0.044-0.222-0.067-0.335-0.067H14.812c-1.585,0-2.875,1.29-2.875,2.875v66.625
		c0,1.586,1.29,2.875,2.875,2.875h45.377c1.584,0,2.875-1.289,2.875-2.875v-56.29C63.063,14.265,62.947,14.039,62.77,13.878z
		 M50.791,4.3l9.348,9.348h-8.223c-0.62,0-1.125-0.505-1.125-1.125V4.3z M13.687,4.188c0-0.621,0.504-1.125,1.125-1.125h34.229
		v6.126H13.687V4.188z M61.313,70.813c0,0.621-0.504,1.125-1.125,1.125H14.812c-0.62,0-1.125-0.504-1.125-1.125V10.938h35.354v1.584
		c0,1.585,1.29,2.875,2.875,2.875h9.396V70.813z"/>
</g>
</svg>
