<?xml version="1.0" encoding="utf-8"?>
<!-- Generator: Adobe Illustrator 16.0.3, SVG Export Plug-In . SVG Version: 6.00 Build 0)  -->
<!DOCTYPE svg PUBLIC "-//W3C//DTD SVG 1.1//EN" "http://www.w3.org/Graphics/SVG/1.1/DTD/svg11.dtd">
<svg version="1.1" id="Layer_1" xmlns="http://www.w3.org/2000/svg" xmlns:xlink="http://www.w3.org/1999/xlink" x="0px" y="0px"
	 width="75px" height="75px" viewBox="0 0 75 75" enable-background="new 0 0 75 75" xml:space="preserve">
<g>
	<path fill="#21A0DF" d="M63.657,12.237c-0.045-0.116-0.109-0.227-0.205-0.318L52.954,1.835c-0.028-0.027-0.065-0.039-0.097-0.062
		c-0.059-0.043-0.115-0.089-0.185-0.117c-0.069-0.027-0.142-0.034-0.215-0.043c-0.037-0.005-0.071-0.022-0.11-0.022H52.33h-0.001
		H14.114c-1.577,0-2.86,1.283-2.86,2.859v66.923c0,1.577,1.283,2.859,2.86,2.859h46.772c1.576,0,2.859-1.282,2.859-2.859V12.608
		C63.746,12.474,63.711,12.351,63.657,12.237z M53.223,4.52l7.51,7.213h-7.395c-0.064,0-0.115-0.052-0.115-0.118V4.52z
		 M61.996,71.373c0,0.611-0.498,1.109-1.109,1.109H14.114c-0.612,0-1.11-0.498-1.11-1.109V4.45c0-0.612,0.498-1.109,1.11-1.109
		h37.358v8.274c0,1.03,0.837,1.868,1.865,1.868h8.658V71.373z"/>
	<path fill="#21A0DF" d="M45.429,44.487c-6.656,0-12.071,5.416-12.071,12.072s5.415,12.071,12.071,12.071
		s12.072-5.415,12.072-12.071S52.085,44.487,45.429,44.487z M45.429,66.881c-5.691,0-10.321-4.63-10.321-10.321
		s4.63-10.322,10.321-10.322s10.322,4.631,10.322,10.322S51.12,66.881,45.429,66.881z"/>
	<path fill="#21A0DF" d="M51.299,50.689c-0.342-0.342-0.896-0.342-1.238,0L45.43,55.32l-4.631-4.631
		c-0.342-0.342-0.896-0.342-1.238,0c-0.341,0.342-0.341,0.896,0,1.238l4.631,4.631l-4.631,4.631c-0.341,0.342-0.341,0.896,0,1.238
		c0.171,0.171,0.396,0.256,0.619,0.256s0.448-0.085,0.619-0.256l4.631-4.631l4.631,4.631c0.171,0.171,0.396,0.256,0.619,0.256
		s0.448-0.085,0.619-0.256c0.341-0.342,0.341-0.896,0-1.238l-4.631-4.631l4.631-4.631C51.64,51.586,51.64,51.031,51.299,50.689z"/>
	<path fill="#21A0DF" d="M19.826,18.879c0,0.483,0.392,0.875,0.875,0.875h33.598c0.483,0,0.875-0.392,0.875-0.875
		s-0.392-0.875-0.875-0.875H20.701C20.218,18.004,19.826,18.396,19.826,18.879z"/>
	<path fill="#21A0DF" d="M20.701,29.511h33.598c0.483,0,0.875-0.392,0.875-0.875s-0.392-0.875-0.875-0.875H20.701
		c-0.483,0-0.875,0.392-0.875,0.875S20.218,29.511,20.701,29.511z"/>
	<path fill="#21A0DF" d="M20.701,39.269h33.598c0.483,0,0.875-0.392,0.875-0.875s-0.392-0.875-0.875-0.875H20.701
		c-0.483,0-0.875,0.392-0.875,0.875S20.218,39.269,20.701,39.269z"/>
	<path fill="#21A0DF" d="M30.125,47.276h-9.423c-0.483,0-0.875,0.392-0.875,0.875s0.392,0.875,0.875,0.875h9.423
		c0.483,0,0.875-0.392,0.875-0.875S30.608,47.276,30.125,47.276z"/>
	<path fill="#21A0DF" d="M27.75,57.034h-7.049c-0.483,0-0.875,0.392-0.875,0.875s0.392,0.875,0.875,0.875h7.049
		c0.483,0,0.875-0.392,0.875-0.875S28.233,57.034,27.75,57.034z"/>
</g>
</svg>
