<?xml version="1.0" encoding="utf-8"?>
<!-- Generator: Adobe Illustrator 16.0.3, SVG Export Plug-In . SVG Version: 6.00 Build 0)  -->
<!DOCTYPE svg PUBLIC "-//W3C//DTD SVG 1.1//EN" "http://www.w3.org/Graphics/SVG/1.1/DTD/svg11.dtd">
<svg version="1.1" id="Layer_1" xmlns="http://www.w3.org/2000/svg" xmlns:xlink="http://www.w3.org/1999/xlink" x="0px" y="0px"
	 width="75px" height="75px" viewBox="0 0 75 75" enable-background="new 0 0 75 75" xml:space="preserve">
<g>
	<path fill="#6699CC" d="M60.912,72.441H14.087c-1.493,0-2.708-1.214-2.708-2.708V5.266c0-1.493,1.215-2.708,2.708-2.708h46.827
		c1.492,0,2.708,1.215,2.708,2.708v64.468C63.62,71.228,62.406,72.441,60.912,72.441z M14.087,4.206c-0.584,0-1.06,0.476-1.06,1.06
		v64.468c0,0.584,0.476,1.061,1.06,1.061h46.827c0.583,0,1.06-0.477,1.06-1.061V5.266c0-0.583-0.477-1.06-1.06-1.06H14.087z"/>
</g>
<g>
	<path fill="#6699CC" d="M53.625,16.858h-32.25c-0.483,0-0.875-0.392-0.875-0.875s0.392-0.875,0.875-0.875h32.25
		c0.482,0,0.875,0.392,0.875,0.875S54.107,16.858,53.625,16.858z"/>
</g>
<g>
	<path fill="#6699CC" d="M53.625,27.617h-32.25c-0.483,0-0.875-0.392-0.875-0.875c0-0.483,0.392-0.875,0.875-0.875h32.25
		c0.482,0,0.875,0.392,0.875,0.875C54.5,27.225,54.107,27.617,53.625,27.617z"/>
</g>
<g>
	<path fill="#6699CC" d="M53.625,38.375h-32.25c-0.483,0-0.875-0.392-0.875-0.875s0.392-0.875,0.875-0.875h32.25
		c0.482,0,0.875,0.392,0.875,0.875S54.107,38.375,53.625,38.375z"/>
</g>
<g>
	<path fill="#6699CC" d="M29.373,49.133h-7.998c-0.483,0-0.875-0.392-0.875-0.875c0-0.482,0.392-0.875,0.875-0.875h7.998
		c0.483,0,0.875,0.393,0.875,0.875C30.248,48.741,29.856,49.133,29.373,49.133z"/>
</g>
<g>
	<path fill="#6699CC" d="M27.763,59.893h-6.388c-0.483,0-0.875-0.392-0.875-0.875c0-0.482,0.392-0.875,0.875-0.875h6.388
		c0.483,0,0.875,0.393,0.875,0.875C28.638,59.501,28.247,59.893,27.763,59.893z"/>
</g>
<g>
	<path fill="#6699CC" d="M35.727,49.516"/>
</g>
<g>
	<path fill="#6699CC" d="M50.613,64.8"/>
</g>
<g>
	<g>
		<path fill="#6699CC" d="M44.561,67.521c-6.457,0-11.709-5.254-11.709-11.711c0-0.719,0.066-1.438,0.195-2.141l1.721,0.318
			c-0.11,0.597-0.166,1.21-0.166,1.822c0,5.491,4.467,9.959,9.959,9.959c1.992,0,3.916-0.586,5.563-1.696l0.979,1.45
			C49.165,66.831,46.902,67.521,44.561,67.521z"/>
	</g>
	<g>
		<g>
			<polygon fill="#6699CC" points="30.879,53.666 35.572,49.759 36.61,55.777 			"/>
		</g>
	</g>
</g>
<g>
	<g>
		<path fill="#6699CC" d="M56.075,57.952l-1.722-0.316c0.11-0.6,0.166-1.214,0.166-1.823c0-5.492-4.468-9.961-9.959-9.961
			c-1.994,0-3.918,0.588-5.564,1.698l-0.979-1.45c1.937-1.308,4.198-1.998,6.543-1.998c6.457,0,11.709,5.254,11.709,11.711
			C56.271,56.527,56.205,57.248,56.075,57.952z"/>
	</g>
	<g>
		<g>
			<polygon fill="#6699CC" points="58.242,57.958 53.548,61.865 52.512,55.848 			"/>
		</g>
	</g>
</g>
<g>
	<path fill="#6699CC" d="M38.507,46.824"/>
</g>
</svg>
