<?xml version="1.0" encoding="utf-8"?>
<!-- Generator: Adobe Illustrator 16.0.3, SVG Export Plug-In . SVG Version: 6.00 Build 0)  -->
<!DOCTYPE svg PUBLIC "-//W3C//DTD SVG 1.1//EN" "http://www.w3.org/Graphics/SVG/1.1/DTD/svg11.dtd">
<svg version="1.1" id="Layer_1" xmlns="http://www.w3.org/2000/svg" xmlns:xlink="http://www.w3.org/1999/xlink" x="0px" y="0px"
	 width="75px" height="75px" viewBox="0 0 75 75" enable-background="new 0 0 75 75" xml:space="preserve">
<g>
	<path fill="#6699CC" d="M65.631,35.152c-0.053-0.112-0.125-0.216-0.227-0.3l-3.545-2.941l2.103-1.267
		c0.263-0.157,0.422-0.438,0.425-0.743c0.002-0.304-0.154-0.588-0.412-0.749l-3.882-2.417l1.966-3.417
		c0.799-1.297,0.395-3.003-0.92-3.815L36.428,5.109c-1.296-0.803-3.003-0.4-3.815,0.913L21.069,25.613
		c-0.146,0.025-0.288,0.074-0.41,0.175l-11.062,9.19c-0.031,0.026-0.046,0.062-0.073,0.09c-0.958,0.463-1.625,1.436-1.625,2.569
		v33.007c0,1.578,1.284,2.862,2.862,2.862h53.477c1.578,0,2.861-1.284,2.861-2.862V37.637
		C67.102,36.567,66.504,35.643,65.631,35.152z M33.131,55.07L9.671,70.753c-0.004-0.037-0.022-0.069-0.022-0.106V37.637
		c0-0.21,0.075-0.396,0.177-0.565c-0.004,0.271,0.101,0.539,0.333,0.714L33.131,55.07z M35.793,55.396
		c0.047-0.032,0.092-0.068,0.132-0.109c0.876-0.875,2.404-0.875,3.277,0c0.041,0.041,0.086,0.078,0.134,0.109L63.87,71.758H11.317
		L35.793,55.396z M65.331,70.63L41.773,54.92l23.502-17.647c0.041,0.115,0.074,0.235,0.074,0.365v33.008v0.002
		C65.343,70.645,65.339,70.635,65.331,70.63z M60.342,32.925l3.71,3.079l-17.312,13l7.267-12.359l6.281-3.786
		C60.309,32.879,60.318,32.906,60.342,32.925z M34.111,6.927c0.295-0.476,0.922-0.623,1.416-0.318l24.709,14.395
		c0.477,0.294,0.625,0.921,0.318,1.42l-2.4,4.171c-0.234,0.409-0.104,0.93,0.296,1.179l3.386,2.108l-8.922,5.377
		c-0.125,0.075-0.229,0.181-0.303,0.306L43.25,51.488c-0.034,0.059-0.044,0.121-0.063,0.185l-2.944,2.21
		c-1.532-1.338-4.009-1.313-5.489,0.104l-0.081,0.055L15.049,39.275L34.111,6.927z M13.642,38.217l-2.431-1.829
		c-0.118-0.089-0.252-0.132-0.389-0.153l7.812-6.489L13.642,38.217z"/>
	<path fill="#6699CC" d="M28.153,46.658c1.823,1.126,3.914,1.721,6.046,1.721c4.031,0,7.701-2.045,9.814-5.47
		c1.617-2.619,2.119-5.711,1.411-8.707s-2.54-5.537-5.159-7.154c-1.822-1.126-3.914-1.721-6.045-1.721
		c-4.03,0-7.699,2.045-9.814,5.47C21.066,36.201,22.747,43.316,28.153,46.658z M42.523,41.989c-1.793,2.905-4.905,4.64-8.325,4.64
		c-1.808,0-3.58-0.505-5.126-1.459c-2.025-1.252-3.431-3.129-4.129-5.229l18.938-4.476C44.21,37.732,43.742,40.02,42.523,41.989z
		 M25.894,31.716c1.794-2.905,4.907-4.64,8.326-4.64c1.807,0,3.58,0.505,5.125,1.46c1.973,1.217,3.413,3.053,4.135,5.227
		l-18.938,4.473C24.226,36.048,24.643,33.741,25.894,31.716z"/>
	<path fill="#6699CC" d="M32.743,20.526c0.139,0.082,0.292,0.121,0.442,0.121c0.3,0,0.592-0.154,0.755-0.432l3.168-5.388
		c0.245-0.417,0.105-0.953-0.311-1.198c-0.417-0.247-0.954-0.105-1.198,0.311l-3.168,5.388
		C32.188,19.745,32.327,20.281,32.743,20.526z"/>
	<path fill="#6699CC" d="M42.586,23.268c0.141,0.082,0.292,0.121,0.441,0.121c0.301,0,0.593-0.154,0.756-0.432l1.838-3.125
		c0.245-0.417,0.105-0.953-0.311-1.198c-0.416-0.244-0.953-0.106-1.197,0.311l-1.838,3.125
		C42.029,22.487,42.169,23.023,42.586,23.268z"/>
	<path fill="#6699CC" d="M49.389,31.182c0.139,0.082,0.291,0.121,0.441,0.121c0.3,0,0.592-0.154,0.755-0.432l3.548-6.034
		c0.245-0.417,0.105-0.953-0.311-1.198c-0.418-0.246-0.953-0.105-1.197,0.311l-3.548,6.034
		C48.832,30.401,48.971,30.937,49.389,31.182z"/>
</g>
</svg>
